<?xml version="1.0" encoding="UTF-8" standalone="no"?>
<!-- Created with Inkscape (http://www.inkscape.org/) -->

<svg
   width="20mm"
   height="18mm"
   viewBox="0 0 20 18"
   version="1.1"
   id="svg5"
   inkscape:version="1.2.1 (9c6d41e410, 2022-07-14)"
   sodipodi:docname="life2.svg"
   xmlns:inkscape="http://www.inkscape.org/namespaces/inkscape"
   xmlns:sodipodi="http://sodipodi.sourceforge.net/DTD/sodipodi-0.dtd"
   xmlns="http://www.w3.org/2000/svg"
   xmlns:svg="http://www.w3.org/2000/svg">
  <sodipodi:namedview
     id="namedview7"
     pagecolor="#ffffff"
     bordercolor="#999999"
     borderopacity="1"
     inkscape:showpageshadow="0"
     inkscape:pageopacity="0"
     inkscape:pagecheckerboard="0"
     inkscape:deskcolor="#d1d1d1"
     inkscape:document-units="mm"
     showgrid="false"
     inkscape:zoom="0.914906"
     inkscape:cx="179.25339"
     inkscape:cy="562.35285"
     inkscape:window-width="1350"
     inkscape:window-height="1230"
     inkscape:window-x="796"
     inkscape:window-y="550"
     inkscape:window-maximized="0"
     inkscape:current-layer="g1419" />
  <defs
     id="defs2" />
  <g
     inkscape:label="Layer 1 copy"
     inkscape:groupmode="layer"
     id="g1419"
     style="display:inline;fill:#ff0000"
     transform="translate(29.200994,13.472586)">
    <g
       id="g403"
       transform="matrix(0.36988024,0,0,0.36169156,-18.400123,-8.5996654)"
       style="stroke-width:2.73401">
      <path
         style="fill:#0000ff;stroke:#000000;stroke-width:0;stroke-dasharray:none;stroke-opacity:1"
         d="m 26.56993,48.475253 c -8.737593,-10.34256 -16.355109,-19.56272 -16.247944,-19.66637 0.04309,-0.0417 0.753373,0.22586 1.57842,0.5945 2.619309,1.17035 3.19978,1.28426 6.543959,1.28426 2.399669,0 3.191198,-0.0613 4.038141,-0.31247 2.424658,-0.71921 4.942724,-2.11799 6.704334,-3.72423 l 0.91048,-0.83018 1.30863,1.07556 c 1.69,1.38903 2.92528,2.09811 4.91283,2.82012 1.36105,0.49443 1.87831,0.59285 3.36677,0.64062 1.7157,0.0551 1.72649,0.0531 0.44188,-0.0802 -3.50234,-0.36355 -6.39252,-1.65339 -8.90789,-3.97544 l -1.09495,-1.0108 -1.38014,1.27525 c -2.21588,2.04744 -4.572763,3.22171 -7.569971,3.77158 -7.492223,1.37453 -14.9970075,-3.0747 -16.7536785,-9.93245 -0.374693,-1.46274 -0.374693,-4.28876 0,-5.7515 1.756671,-6.8577503 9.2614555,-11.3069803 16.7536785,-9.9324403 2.936205,0.53868 5.335721,1.71594 7.442721,3.65161 l 1.26524,1.16233 0.95267,-0.94202 c 2.88789,-2.8556 6.51874,-4.32294 10.6969,-4.32294 5.6928,0 10.65635,2.88691 12.99426,7.5577603 1.86892,3.73383 1.87011,7.1572 0.004,10.88594 -2.09984,4.19536 -6.44268,7.02845 -11.59353,7.56312 -1.27752,0.13262 -1.26443,0.13493 0.43893,0.0772 1.78092,-0.0603 3.32679,-0.46049 5.0647,-1.31116 1.35338,-0.66245 1.85726,-1.34494 -8.73689,11.8338 -7.7627,9.65651 -9.38851,11.6313 -9.57585,11.6313 -0.0828,0 -1.6837,-1.81474 -3.55752,-4.03275 z"
         id="path1405"
         transform="matrix(1.0440716,0,0,1.0316804,-33.523221,-17.877905)" />
      <path
         style="fill:#0000ff;stroke:#000000;stroke-width:0;stroke-dasharray:none;stroke-opacity:1"
         d="m 28.96406,51.102533 c -2.71644,-3.11937 -15.328033,-18.22008 -17.509823,-20.96568 -0.463827,-0.58369 -0.795171,-1.06125 -0.736322,-1.06125 0.05884,0 0.833788,0.29867 1.722083,0.66371 0.888296,0.36504 2.083885,0.7471 2.656864,0.849 1.476388,0.26258 5.572704,0.22711 6.975366,-0.0604 2.124006,-0.43538 4.693672,-1.76566 6.887472,-3.56553 l 1.16238,-0.95367 1.38656,1.09149 c 2.69276,2.11975 5.23486,3.16686 7.91651,3.26086 1.48574,0.052 1.57203,0.0399 0.79006,-0.11107 -4.44369,-0.85825 -6.33853,-1.71993 -8.9222,-4.05738 l -1.17547,-1.06344 -1.3299,1.22174 c -3.068,2.81851 -6.314855,4.08464 -10.467552,4.0819 -6.320343,-0.004 -11.8186875,-3.86158 -13.6380805,-9.56795 -0.52785,-1.65555 -0.52909,-5.00856 -0.0025,-6.67132 1.796464,-5.6721503 7.3445955,-9.5638103 13.6405475,-9.5679503 4.040975,-0.003 7.341525,1.24625 10.251865,3.87924 0.63455,0.57407 1.22596,1.04378 1.31426,1.04378 0.0883,0 0.51277,-0.35198 0.94328,-0.78218 4.03899,-4.03611 9.94753,-5.4166 15.50722,-3.62317 2.27205,0.73291 3.80963,1.66445 5.56205,3.36976 1.27333,1.23909 1.6382,1.7299403 2.41063,3.2429803 0.5006,0.9806 1.03422,2.30795 1.18581,2.94967 1.16203,4.91906 -1.28001,10.30105 -6.00649,13.23768 -1.83654,1.14106 -3.62069,1.75757 -6.63993,2.29442 l -0.87786,0.15609 1.14121,0.0171 c 1.49141,0.0224 3.29596,-0.35686 4.68117,-0.98376 0.61198,-0.27696 1.11268,-0.45694 1.11268,-0.39994 0,0.35247 -18.49085,23.31797 -18.76525,23.3063 -0.0597,-0.003 -0.58926,-0.5565 -1.17667,-1.23105 z"
         id="path1490"
         transform="matrix(1.0440716,0,0,1.0316804,-33.523221,-17.877905)" />
      <path
         style="fill:#0000ff;stroke:#000000;stroke-width:0;stroke-dasharray:none;stroke-opacity:1"
         d="m 27.7375,49.662823 c -6.010308,-7.00241 -17.135231,-20.44581 -17.015506,-20.5616 0.03619,-0.035 0.818262,0.24851 1.737937,0.63002 2.021901,0.83876 3.194416,1.0394 6.083866,1.04107 2.727694,0.002 3.846057,-0.19158 5.769501,-0.99654 1.798482,-0.75267 3.080672,-1.52881 4.642572,-2.81026 l 1.15857,-0.95054 1.53896,1.16637 c 1.92117,1.45603 2.78249,1.93799 4.62677,2.58894 1.33256,0.47034 4.37397,0.90102 4.37397,0.61938 0,-0.0521 -0.5728,-0.18703 -1.27289,-0.29978 -3.07689,-0.49555 -5.7971,-1.80021 -8.06222,-3.86676 l -1.20028,-1.09507 -1.3305,1.2223 c -3.06865,2.81909 -6.315161,4.08519 -10.468162,4.08245 -6.295952,-0.004 -11.8440845,-3.89578 -13.6405475,-9.56794 -0.290331,-0.91669 -0.368668,-1.61329 -0.368668,-3.27836 0,-2.57156 0.149371,-3.2279 1.231579,-5.41159 1.358918,-2.7420403 3.70023,-4.9273503 6.7291475,-6.2808003 5.538843,-2.47498 12.439983,-1.28068 16.611931,2.87484 0.4305,0.4288 0.86834,0.77965 0.97297,0.77965 0.10464,0 0.54248,-0.35198 0.97298,-0.78217 4.039,-4.03612 9.94753,-5.41661 15.50724,-3.62317 2.27204,0.73291 3.80963,1.66445 5.56205,3.36976 1.27332,1.23908 1.63819,1.7299303 2.41062,3.2429803 1.06608,2.08824 1.46144,3.58117 1.46144,5.5185 0,3.98094 -2.28839,8.0504 -5.85793,10.41721 -1.81785,1.20534 -3.66813,1.9185 -6.27404,2.41824 l -1.66793,0.31986 1.66793,-0.072 c 1.679,-0.0726 3.23151,-0.45447 4.60755,-1.1334 0.36277,-0.17899 0.65958,-0.27328 0.65958,-0.20956 0,0.35685 -18.46666,23.3248 -18.75166,23.32241 -0.0673,-4.6e-4 -1.15482,-1.20402 -2.41683,-2.67435 z"
         id="path1492"
         transform="matrix(1.0440716,0,0,1.0316804,-33.523221,-17.877905)" />
      <path
         style="fill:#0000ff;stroke:#000000;stroke-width:0;stroke-dasharray:none;stroke-opacity:1"
         d="m 28.96428,51.102533 c -3.16302,-3.63297 -15.174818,-18.01394 -17.535144,-20.99373 -0.970999,-1.22583 -0.995527,-1.22093 1.362221,-0.27172 2.018613,0.81268 3.33004,0.99266 6.528695,0.89597 2.430267,-0.0735 2.755438,-0.12255 4.171179,-0.62964 1.744869,-0.62498 4.080679,-1.98304 5.599689,-3.25573 l 1.03197,-0.86462 1.18359,0.93131 c 2.99045,2.35303 6.31877,3.68099 8.74529,3.48926 0.5757,-0.0456 0.41917,-0.10465 -0.94379,-0.35675 -3.10628,-0.57454 -5.53371,-1.76622 -7.78895,-3.82376 l -1.20028,-1.09507 -1.28594,1.18137 c -1.57783,1.4495 -2.56853,2.11885 -4.244758,2.86785 -3.800955,1.69843 -8.497506,1.69347 -12.316453,-0.013 -3.0289175,-1.35346 -5.3702295,-3.53876 -6.7291475,-6.28081 -1.078211,-2.17562 -1.231579,-2.84239 -1.231579,-5.35429 0,-2.5119 0.153368,-3.17866 1.231579,-5.35428 2.294429,-4.6297203 7.2828335,-7.5481403 12.9019145,-7.5481403 3.971759,0 7.241184,1.25997 10.222604,3.93957 0.60108,0.54024 1.14496,0.98225 1.2086,0.98225 0.0637,0 0.70159,-0.53822 1.41765,-1.19606 2.59566,-2.38457 4.98866,-3.46294 8.67713,-3.91023 2.85353,-0.34605 6.57619,0.42869 9.199,1.91444 0.72165,0.40879 1.85695,1.30666 2.75015,2.17497 1.30834,1.27192 1.64469,1.7255703 2.40449,3.2429803 1.09711,2.19113 1.44282,3.48206 1.44597,5.39959 0.003,1.82627 -0.34866,3.36558 -1.15408,5.05147 -2.0364,4.26265 -5.61316,6.84626 -10.88924,7.86565 -1.54366,0.29824 -1.55869,0.30573 -0.65099,0.32395 1.2841,0.0258 3.40493,-0.42467 4.72499,-1.00354 0.60794,-0.26659 1.10464,-0.4322 1.10378,-0.36801 -0.006,0.36471 -18.47317,23.30063 -18.7532,23.28978 -0.0655,-0.003 -0.59965,-0.55652 -1.18694,-1.23105 z"
         id="path1494"
         transform="matrix(1.0440716,0,0,1.0316804,-33.523221,-17.877905)" />
      <path
         style="fill:#0000ff;stroke:#000000;stroke-width:0;stroke-dasharray:none;stroke-opacity:1"
         d="m 28.51866,50.597753 c -3.970258,-4.6156 -13.701459,-16.27558 -16.746653,-20.06592 -1.340796,-1.66889 -1.361553,-1.65353 0.966966,-0.7154 1.999499,0.80557 3.558529,1.01826 6.671034,0.9101 2.783203,-0.0967 3.487346,-0.26513 5.798446,-1.38687 1.469927,-0.71345 2.408927,-1.31872 3.869177,-2.49401 l 1.05286,-0.84739 1.44315,1.12319 c 2.48162,1.93141 5.86947,3.30079 8.18802,3.3096 1.08905,0.004 0.84012,-0.11918 -0.87556,-0.43375 -2.96809,-0.54421 -5.30577,-1.71111 -7.5745,-3.78097 l -1.19285,-1.08828 -1.28594,1.18137 c -2.2218,2.04111 -4.071512,3.05913 -6.754165,3.71727 -6.629028,1.62632 -13.7049515,-1.4303 -16.5361935,-7.14321 -1.078211,-2.17562 -1.231579,-2.84239 -1.231579,-5.35429 0,-2.51189 0.153368,-3.17866 1.231579,-5.35428 1.768568,-3.5686303 5.2765025,-6.2279303 9.5102465,-7.2095403 3.095749,-0.71776 7.083848,-0.30314 9.81371,1.02026 1.302642,0.6315 3.038152,1.79258 3.673312,2.45749 0.24141,0.25271 0.66094,0.61329 0.93229,0.8013 l 0.49335,0.34181 1.26236,-1.18297 c 4.05065,-3.79593 9.5509,-4.99605 15.05366,-3.28463 2.2283,0.69303 3.84785,1.67204 5.61521,3.39439 2.54211,2.4773503 3.86522,5.4765103 3.86522,8.7614803 0,3.28497 -1.31915,6.2687 -3.8711,8.75587 -2.22011,2.16376 -4.68787,3.41902 -7.8385,3.98718 -0.85501,0.15418 -1.59407,0.3216 -1.64236,0.37205 -0.0483,0.0505 0.54427,0.0465 1.31679,-0.009 1.4564,-0.10415 3.38075,-0.59708 4.52096,-1.15804 0.36211,-0.17816 0.65839,-0.26059 0.65839,-0.18318 0,0.37822 -18.45834,23.29855 -18.76293,23.29855 -0.07,0 -0.80099,-0.7832 -1.6244,-1.74045 z"
         id="path1496"
         transform="matrix(1.0440716,0,0,1.0316804,-33.523221,-17.877905)" />
      <path
         style="display:inline;fill:#0000ff;stroke:#000000;stroke-width:0;stroke-dasharray:none;stroke-opacity:1"
         d="M 29.31573,51.531573 C 26.095,47.905603 10.589272,29.229583 10.705905,29.116783 c 0.043,-0.0416 0.872094,0.23924 1.842433,0.62406 1.139769,0.45201 2.277992,0.76676 3.215639,0.88922 1.865715,0.24368 5.701576,0.0855 6.981887,-0.28792 1.616428,-0.47144 4.240766,-1.87939 5.850486,-3.13877 l 1.52545,-1.19344 1.59655,1.19334 c 1.89435,1.41592 3.93743,2.42641 5.84748,2.89212 1.23236,0.30047 2.92602,0.46466 2.71801,0.26348 -0.0427,-0.0413 -0.80404,-0.22845 -1.69182,-0.41583 -2.95199,-0.62311 -5.05806,-1.70207 -7.28584,-3.73267 l -1.18743,-1.08232 -1.28594,1.18137 c -2.2218,2.04111 -4.071512,3.05913 -6.754165,3.71727 -6.629028,1.62632 -13.7049515,-1.4303 -16.5361935,-7.14321 -1.078211,-2.17562 -1.231579,-2.84239 -1.231579,-5.35429 0,-2.51189 0.153368,-3.17866 1.231579,-5.35428 1.768568,-3.5686303 5.2765025,-6.2279303 9.5102465,-7.2095403 3.095749,-0.71776 7.083848,-0.30314 9.81371,1.02026 1.302642,0.6315 3.038152,1.79258 3.673312,2.45749 0.24141,0.25271 0.65394,0.60848 0.91673,0.79059 l 0.4778,0.3311 1.40693,-1.27249 c 2.47929,-2.24239 5.15554,-3.4589 8.4351,-3.83423 4.72004,-0.5402 9.25773,1.03955 12.43382,4.32869 2.27432,2.3552603 3.55171,5.4079203 3.55171,8.4877203 0,3.29036 -1.32557,6.29468 -3.86347,8.75631 -2.22975,2.16275 -4.60985,3.38012 -7.82056,4.00008 -0.86908,0.16781 -1.42213,0.33653 -1.229,0.37494 0.69828,0.13885 3.2328,-0.35206 4.62945,-0.89669 0.78527,-0.30621 1.42776,-0.50546 1.42776,-0.44274 0,0.36021 -18.46468,23.27192 -18.7548,23.27172 -0.0655,-5e-5 -0.44147,-0.36299 -0.83546,-0.80655 z"
         id="path1498"
         transform="matrix(1.0440716,0,0,1.0316804,-33.523221,-17.877905)" />
      <path
         style="fill:#0000ff;stroke:#000000;stroke-width:0;stroke-dasharray:none;stroke-opacity:1"
         d="m 28.07533,50.088353 c -2.71688,-3.14876 -6.599745,-7.77721 -11.929976,-14.22075 -5.393831,-6.52042 -5.608851,-6.792 -5.377565,-6.792 0.09791,0 0.719596,0.22219 1.381517,0.49374 2.506122,1.02816 3.045683,1.12043 6.470632,1.10655 2.798168,-0.0113 3.289014,-0.0563 4.283765,-0.39238 2.160138,-0.7298 4.381057,-1.98308 6.300047,-3.55514 l 0.92738,-0.75974 0.65276,0.53297 c 2.86352,2.33809 6.53427,3.9324 9.0539,3.9324 0.80146,0 0.50354,-0.12418 -1.03223,-0.43025 -2.95914,-0.58975 -5.2659,-1.75467 -7.48674,-3.78083 l -1.18563,-1.08169 -1.27956,1.16815 c -2.22463,2.03096 -4.103664,3.06195 -6.774985,3.71731 -6.63852,1.62864 -13.7008965,-1.42212 -16.5361935,-7.14321 -1.078211,-2.17562 -1.231579,-2.84239 -1.231579,-5.35429 0,-2.51189 0.153368,-3.17866 1.231579,-5.35428 1.746397,-3.5238903 5.1228445,-6.1263603 9.2676345,-7.1432003 4.422341,-1.08494 9.43448,-0.0474 12.777114,2.64487 0.57216,0.46085 1.3337,1.0748 1.69228,1.36433 l 0.652,0.52641 1.40831,-1.27375 c 3.85682,-3.48829 8.54415,-4.67177 13.82816,-3.49139 6.0962,1.3618 10.59386,6.6569603 10.59386,12.4723203 0,6.0745 -4.62727,11.26221 -11.30227,12.67116 -0.88095,0.18595 -1.64325,0.38202 -1.69402,0.43572 -0.14941,0.15803 2.10191,-0.11515 3.21382,-0.38996 0.56303,-0.13916 1.45186,-0.43614 1.97517,-0.65998 0.52332,-0.22382 0.95148,-0.36762 0.95148,-0.31954 0,0.43311 -18.41127,23.3263 -18.75959,23.3263 -0.0713,0 -1.00337,-1.01243 -2.07107,-2.24985 z"
         id="path1500"
         transform="matrix(1.0440716,0,0,1.0316804,-33.523221,-17.877905)" />
      <path
         style="fill:#0000ff;stroke:#000000;stroke-width:0;stroke-dasharray:none;stroke-opacity:1"
         d="m 27.6298,49.578953 c -4.01242,-4.6768 -14.853748,-17.69521 -16.544293,-19.8666 -0.583507,-0.74947 -0.451509,-0.78156 0.877258,-0.21323 2.611227,1.11684 5.487021,1.48279 8.898228,1.1323 2.607275,-0.26788 5.015397,-1.35872 7.874737,-3.56712 l 1.39498,-1.07741 0.64129,0.4831 c 2.01203,1.51573 2.71421,1.96931 3.99167,2.57844 1.71062,0.81567 2.9244,1.17486 4.46552,1.32148 1.51682,0.14433 1.33074,-0.0165 -0.42363,-0.36616 -2.95463,-0.58885 -5.26624,-1.75497 -7.47687,-3.77183 l -1.17576,-1.07268 -1.29133,1.15799 c -1.5928,1.42831 -2.58776,2.09801 -4.229374,2.84675 -1.891014,0.86248 -3.122323,1.13096 -5.620622,1.22552 -1.887078,0.0714 -2.501509,0.0269 -3.882188,-0.28172 -4.25971,-0.95197 -7.8009725,-3.62051 -9.5869645,-7.2243 -1.078211,-2.17562 -1.231579,-2.84239 -1.231579,-5.35429 0,-2.51189 0.153368,-3.17866 1.231579,-5.35428 1.350583,-2.7252203 3.653567,-4.8843003 6.6847145,-6.2670203 1.921039,-0.87631 3.142018,-1.14406 5.64996,-1.23899 1.889856,-0.0715 2.500741,-0.027 3.890237,0.28352 2.627982,0.58731 4.720237,1.70519 7.334767,3.91895 l 0.82577,0.69919 1.4101,-1.27537 c 3.85872,-3.49 8.54496,-4.6736 13.82995,-3.49301 6.13261,1.36993 10.59386,6.6222303 10.59386,12.4723203 0,3.41841 -1.46161,6.60873 -4.17406,9.11092 -1.95146,1.8002 -3.88994,2.78497 -6.98326,3.5476 -1.0622,0.26188 -1.69425,0.48073 -1.40456,0.48633 0.88994,0.0172 3.63139,-0.60166 4.69653,-1.06024 0.55524,-0.23904 1.00953,-0.3762 1.00953,-0.30478 0,0.41265 -18.43462,23.28387 -18.76723,23.28387 -0.0779,0 -1.20697,-1.24166 -2.50896,-2.75925 z"
         id="path1502"
         transform="matrix(1.0440716,0,0,1.0316804,-33.523221,-17.877905)" />
      <path
         style="fill:#0000ff;stroke:#000000;stroke-width:0;stroke-dasharray:none;stroke-opacity:1"
         d="m 27.97783,50.003453 c -5.694046,-6.61526 -17.393421,-20.76917 -17.267839,-20.89062 0.04075,-0.0394 0.894187,0.23845 1.896528,0.61746 2.270192,0.85843 4.294154,1.13103 7.149353,0.96293 3.324368,-0.19571 5.872938,-1.22276 8.958028,-3.61 l 1.41814,-1.09734 1.39577,1.04425 c 1.58439,1.18539 3.79904,2.37084 5.35155,2.86454 1.02102,0.3247 3.24807,0.65939 3.24807,0.48814 0,-0.0465 -0.6123,-0.2155 -1.36067,-0.37558 -2.9452,-0.62998 -5.1347,-1.71138 -7.18857,-3.55042 -0.68598,-0.61424 -1.32802,-1.11681 -1.42674,-1.11681 -0.0987,0 -0.72356,0.48287 -1.38852,1.07305 -1.52204,1.35086 -2.52193,2.01695 -4.130704,2.75174 -2.138026,0.97653 -3.223653,1.18432 -6.18786,1.18432 -2.97326,0 -4.048619,-0.20719 -6.2172,-1.19779 -3.0215115,-1.38022 -5.3234875,-3.53498 -6.6960665,-6.26784 -1.077954,-2.14624 -1.211643,-2.73701 -1.211643,-5.35429 0,-2.6188 0.133483,-3.20763 1.215464,-5.36185 1.686862,-3.3585203 4.7786975,-5.8419303 8.7897055,-7.0600303 1.138828,-0.34585 1.667265,-0.39801 4.031953,-0.39801 3.070069,0 4.119827,0.1996 6.308769,1.19951 1.473932,0.6733 2.589672,1.40748 4.171822,2.74515 l 1.08754,0.91948 1.41169,-1.2768 c 2.47631,-2.2397 5.16848,-3.46969 8.42873,-3.8509 3.39368,-0.39681 7.31184,0.48179 9.96384,2.23429 7.17539,4.7416003 8.08798,13.9177803 1.95098,19.6171303 -1.96552,1.82533 -3.93499,2.85745 -6.79976,3.56346 -1.58559,0.39076 -2.11228,0.58019 -1.57785,0.56745 0.82943,-0.0197 3.07944,-0.53627 4.24298,-0.97402 0.74837,-0.28156 1.36067,-0.45791 1.36067,-0.39191 0,0.4224 -18.43051,23.27606 -18.77116,23.27606 -0.0811,0 -1.05171,-1.05064 -2.157,-2.33475 z"
         id="path1504"
         transform="matrix(1.0440716,0,0,1.0316804,-33.523221,-17.877905)" />
      <path
         style="fill:#0000ff;stroke:#000000;stroke-width:0;stroke-dasharray:none;stroke-opacity:1"
         d="m 27.9802,50.003453 c -4.401742,-5.11989 -15.915483,-18.94725 -16.966659,-20.376 -0.223306,-0.30352 -0.332492,-0.55185 -0.242633,-0.55185 0.08986,0 0.742421,0.23093 1.450139,0.51317 2.594092,1.03455 5.038407,1.33958 8.278479,1.03309 2.957047,-0.27974 5.418064,-1.35724 8.372104,-3.66554 l 1.23788,-0.96729 1.54143,1.12869 c 2.01434,1.47498 4.62453,2.70783 6.49365,3.0671 1.90724,0.36659 2.46318,0.23198 0.66605,-0.16128 -2.99903,-0.65626 -5.10702,-1.6932 -7.24813,-3.56542 -0.70329,-0.61497 -1.34058,-1.11812 -1.41618,-1.11812 -0.0756,0 -0.69829,0.48849 -1.38372,1.08553 -1.58203,1.37803 -2.53767,2.01181 -4.130384,2.73926 -2.138026,0.97653 -3.223653,1.18432 -6.18786,1.18432 -1.978035,0 -2.917637,-0.0751 -3.774784,-0.30171 -3.854323,-1.01894 -7.2821865,-3.63743 -9.0188015,-6.88931 -1.103494,-2.06634 -1.339908,-3.05949 -1.339908,-5.6289 0,-2.56938 0.236414,-3.56255 1.339908,-5.62889 1.697282,-3.1782203 4.8175305,-5.6218703 8.6738455,-6.7929903 1.138828,-0.34585 1.667265,-0.39801 4.031953,-0.39801 3.070069,0 4.119827,0.1996 6.308769,1.19951 1.469662,0.67135 2.589582,1.40744 4.155372,2.73119 l 1.07109,0.90551 1.36931,-1.20719 c 2.30213,-2.02957 4.47522,-3.15597 7.19838,-3.73122 1.6495,-0.34846 4.81429,-0.27483 6.62067,0.15402 7.83241,1.85948 12.461,9.3289703 10.06896,16.2489803 -0.67612,1.95594 -1.70684,3.53732 -3.33115,5.11082 -2.13529,2.06849 -3.56858,2.80065 -7.91577,4.04355 l -0.87786,0.25099 0.87786,-0.0918 c 1.19886,-0.12542 2.77986,-0.52008 3.99264,-0.99668 0.55613,-0.21855 1.01114,-0.33493 1.01114,-0.25862 0,0.42744 -18.41871,23.26987 -18.76339,23.26987 -0.0853,0 -1.05842,-1.05064 -2.1624,-2.33475 z"
         id="path1506"
         transform="matrix(1.0440716,0,0,1.0316804,-33.523221,-17.877905)" />
      <path
         style="fill:#0000ff;stroke:#000000;stroke-width:0;stroke-dasharray:none;stroke-opacity:1"
         id="path1565"
         d="m 6.9716895,24.212413 c 0.320493,0.36765 0.623532,0.7515 0.916614,1.14065 0.259988,0.33657 0.496735,0.68863 0.734403,1.03998 0.22457,0.30528 0.423984,0.62664 0.659322,0.92456 0.188953,0.30385 0.393927,0.59322 0.627549,0.86687 0.2647345,0.30684 0.5110345,0.62528 0.7237115,0.96781 0.18236,0.2637 0.42976,0.47264 0.634366,0.71902 0.135029,0.1599 0.06833,0.0798 0.200122,0.2404 0,0 2.207717,0.89946 2.207717,0.89946 v 0 c -0.147053,-0.14314 -0.07811,-0.0645 -0.204749,-0.2377 -0.217746,-0.23137 -0.401221,-0.48679 -0.649802,-0.69145 -0.237838,-0.33346 -0.437719,-0.69153 -0.717313,-0.99851 -0.237028,-0.26146 -0.47193,-0.52852 -0.622961,-0.84756 -0.22598,-0.30658 -0.47355,-0.59745 -0.671617,-0.92388 -0.263008,-0.33736 -0.468928,-0.71445 -0.735573,-1.05049 -0.3093945,-0.37385 -0.6142195,-0.75738 -0.8814165,-1.15969 0,0 -2.220373,-0.88947 -2.220373,-0.88947 z"
         transform="matrix(1.0440716,0,0,1.0316804,-33.523221,-17.877905)" />
      <path
         style="fill:#0000ff;stroke:#000000;stroke-width:0;stroke-dasharray:none;stroke-opacity:1"
         id="path1575"
         d="m 49.01382,25.398243 c -0.28886,0.29488 -0.63019,0.53653 -0.891,0.85643 -0.2011,0.21717 -0.37725,0.44636 -0.52518,0.70002 -0.13993,0.2745 -0.32038,0.52547 -0.45036,0.80521 -0.16506,0.25217 -0.3031,0.52109 -0.48784,0.76073 -0.24554,0.2497 -0.48314,0.50517 -0.7031,0.77792 -0.19833,0.1989 -0.40587,0.38879 -0.59762,0.59354 0,0 2.04752,1.20072 2.04752,1.20072 v 0 c 0.19645,-0.20762 0.4068,-0.40205 0.60287,-0.60989 0.22364,-0.27256 0.46575,-0.52703 0.71021,-0.78138 0.19401,-0.25385 0.34157,-0.53783 0.51361,-0.80542 0.12365,-0.27358 0.30772,-0.51353 0.44097,-0.78245 0.14597,-0.24026 0.31504,-0.46131 0.50161,-0.67423 0.24977,-0.30562 0.57033,-0.54938 0.87064,-0.8066 0,0 -2.03233,-1.2346 -2.03233,-1.2346 z"
         transform="matrix(1.0440716,0,0,1.0316804,-33.523221,-17.877905)" />
      <path
         style="fill:#0000ff;stroke:#000000;stroke-width:0;stroke-dasharray:none;stroke-opacity:1"
         id="path1642"
         d="m 11.234309,28.872833 c 7.0807,3.95603 -1.2727765,-0.71007 0.510324,0.28895 0.709905,0.39774 1.415987,0.80221 2.132343,1.18871 0.606506,0.32723 -2.396719,-1.35946 -1.802757,-1.01089 0.694706,0.40771 1.403361,0.79219 2.105042,1.1883 0.350544,0.14358 0.68367,0.31073 1.051539,0.40954 0.397451,0.0624 0.795174,0.0806 1.190569,0.1542 0.06053,0.01 0.121058,0.0198 0.181585,0.0298 0,0 -1.827589,-1.34592 -1.827589,-1.34592 v 0 c -0.05998,-0.01 -0.119969,-0.02 -0.179952,-0.03 -0.390656,-0.0609 -0.791859,-0.0606 -1.172111,-0.17728 -0.353018,-0.12269 -0.691683,-0.28323 -1.025301,-0.44913 4.632904,2.62455 -0.05532,-0.0329 -0.303417,-0.16658 -0.601289,-0.32412 1.187158,0.6749 1.780606,1.01258 0.05811,0.0331 -0.116451,-0.0657 -0.174594,-0.0988 -0.708683,-0.40243 -1.418535,-0.80291 -2.12588,-1.2076 -0.60088,-0.34377 1.204326,0.68325 1.806488,1.02487 0,0 -2.146895,-0.81065 -2.146895,-0.81065 z"
         transform="matrix(1.0440716,0,0,1.0316804,-33.523221,-17.877905)" />
      <path
         style="fill:#ff0000;stroke:#000000;stroke-width:0;stroke-dasharray:none;stroke-opacity:1"
         d="m -5.27789,29.827934 c -8.293272,-9.61444 -15.523422,-18.18551 -15.421707,-18.28184 0.04089,-0.0388 0.715063,0.20995 1.498155,0.55264 2.486114,1.08796 3.037063,1.19384 6.211185,1.19384 2.277642,0 3.02892,-0.0569 3.832796,-0.29046 2.301357,-0.66861 4.691376,-1.96889 6.363404,-3.4620601 l 0.864177,-0.77173 1.24209099,0.99986 C 0.91627599,11.059414 2.08873,11.718564 3.975213,12.389764 c 1.291832,0.4596 1.782798,0.5511 3.195563,0.59551 1.628451,0.0513 1.638693,0.0493 0.419407,-0.0746 -3.324243,-0.33797 -6.067446,-1.537 -8.45489901,-3.6955801 l -1.03927299,-0.93964 -1.309967,1.18547 c -2.103191,1.9033001 -4.340223,2.9949001 -7.185019,3.5060701 -7.111227,1.27775 -14.23438,-2.85823 -15.901719,-9.2331901 -0.355641,-1.35977 -0.355641,-3.98683005 0,-5.3466 1.667339,-6.37495 8.790492,-10.5109399 15.901719,-9.2331799 2.786895,0.50075 5.06439,1.5951399 7.064246,3.3945199 l 1.200896,1.08052 0.904231,-0.87571 c 2.741029,-2.65455 6.187254,-4.0185899 10.152929,-4.0185899 5.403319,0 10.11447,2.6836599 12.333488,7.0256699 1.773873,3.47097995 1.775003,6.65332 0.0036,10.11958 -1.99304,3.89999 -6.115046,6.5336101 -11.003957,7.0306601 -1.212571,0.12327 -1.200147,0.12541 0.416604,0.0718 1.69036,-0.056 3.157616,-0.42805 4.807141,-1.21884 1.284557,-0.61581 1.762816,-1.25024 -8.292603,11.00068 -7.36794901,8.97669 -8.911082,10.81244 -9.088897,10.81244 -0.07861,0 -1.598082,-1.68697 -3.376616,-3.74882 z"
         id="path1417" />
      <path
         style="fill:#ff0000;stroke:#000000;stroke-width:0;stroke-dasharray:none;stroke-opacity:1"
         id="path1626"
         d="m -22.529541,8.8239439 c 0.186221,0.31356 0.317285,0.65068 0.467477,0.98054 0.135767,0.2981901 0.298857,0.5823801 0.493858,0.8478701 0.251599,0.2326 0.44333,0.50415 0.615266,0.79461 0.169127,0.29118 0.447147,0.49724 0.702706,0.71424 0.691651,0.78604 1.647418,1.43962 2.728706,1.60814 0.331743,0.0466 0.652508,0.0389 0.977355,-0.0339 0.320096,-0.0414 0.627046,-0.12891 0.941745,-0.19553 0.439293,-0.077 0.888334,-0.0793 1.333421,-0.0863 0.485272,-0.0616 0.970333,-0.11929 1.458979,-0.14803 0.381637,0.0191 0.746198,-0.0809 1.119084,-0.13772 0.338788,-0.0448 0.681318,-0.0465 1.022545,-0.0535 0.455152,-0.004 0.91035,-0.003 1.36552,-0.003 0.359656,-0.0683 0.732431,-0.0842 1.086341,-0.17586 0.342352,-0.0812 0.673931,-0.21611 0.958915,-0.41771 0.248564,-0.14808 0.48969,-0.3053 0.757847,-0.4203 0.382293,-0.12425 0.738301,-0.31076 1.101161,-0.47921 0.359433,-0.17673 0.705021,-0.37582 1.046694,-0.58277 0.411532,-0.18184 0.80577,-0.40362 1.174286,-0.65703 0.302449,-0.20772 0.605742,-0.4150501 0.926235,-0.5978101 0.32156,-0.19941 0.675112,-0.35508 1.039038,-0.467 0.25771299,-0.11965 0.48746799,-0.30548 0.78624799,-0.23705 -0.230557,-0.17456 0.629572,0.33268 0.393288,0.20421 -2.88591799,-1.56912 -2.37527699,-1.45538 -1.70249299,-0.87475 0.260155,0.18365 0.46279,0.422 0.683997,0.64446 0.21795399,0.12541 0.25435799,0.33143 0.38061399,0.52387 0.04721,0.072 0.106272,0.13597 0.159407,0.20397 0.325936,0.3785101 0.695319,0.7053001 1.098693,1.0032001 1.00152001,0.67994 2.05207001,1.37034 3.22759801,1.71958 0.435398,0.15721 0.880735,0.28984 1.327414,0.41619 0.465174,0.15868 0.931002,0.1439 1.412008,0.10078 0.350016,-0.0524 0.686239,0.0369 1.017339,0.13291 0.405921,0.0722 0.812482,0.14485 1.220131,0.21212 0.430097,0.12895 0.876106,0.19461 1.323291,0.23513 0.372467,0.0281 0.746302,0.0283 1.119648,0.0289 0.351165,-3.1e-4 0.702327,-8.8e-4 1.053494,-0.002 0.347578,-0.029 0.665935,-0.1483 0.995842,-0.24407 0.283791,-0.14739 0.531308,-0.34605 0.827449,-0.47261 0.276296,-0.12934 0.582736,-0.18897 0.862757,-0.30548 0.259487,-0.11183 0.512379,-0.26193 0.739759,-0.42818 0.159187,-0.0995 0.307687,-0.21739 0.44272,-0.3459 0,0 -2.043318,-1.21828 -2.043318,-1.21828 v 0 c -0.132723,0.11629 -0.272639,0.22565 -0.422725,0.32048 -0.223165,0.14496 -0.454135,0.28783 -0.707269,0.37818 -0.29543,0.095 -0.584684,0.20033 -0.868685,0.32473 -0.276099,0.13904 -0.522914,0.32856 -0.811276,0.44291 -0.308949,0.0988 -0.621021,0.18743 -0.950165,0.18911 -0.35076,5.9e-4 -0.701524,0.002 -1.052286,8.8e-4 -0.367086,-0.003 -0.73485,-0.006 -1.10023,-0.0446 -0.442821,-0.0523 -0.876414,-0.14409 -1.309811,-0.24509 -0.406764,-0.0726 -0.817457,-0.13185 -1.216725,-0.23722 -0.347595,-0.0861 -0.701585,-0.11008 -1.058393,-0.0617 -0.462949,0.0296 -0.909358,-0.0136 -1.350835,-0.16342 -0.447626,-0.13444 -0.89328,-0.27519 -1.33303,-0.4323 -0.20179,-0.0758 -0.168227,-0.0596 -0.368658,-0.15007 -0.06549,-0.0296 -0.257492,-0.12666 -0.195403,-0.0909 3.31918,1.91265 2.13066,1.22698 1.42551,0.79261 -0.392654,-0.30188 -0.80039,-0.57599 -1.117996,-0.95916 -0.067,-0.0681 -0.220038,-0.21042 -0.270555,-0.30507 -0.08412,-0.15762 -0.04538,-0.34482 -0.236037,-0.4486801 -0.26439401,-0.18065 -0.40422801,-0.47636 -0.68765701,-0.63776 -0.791681,-0.73016 -1.76482199,-1.39593 -2.84582399,-1.57644 -0.30518,0.0406 -0.550482,0.18913 -0.826577,0.31167 -0.370782,0.1358 -0.732288,0.29817 -1.064672,0.50866 -0.319326,0.19261 -0.63368,0.39115 -0.932873,0.61183 -0.369875,0.24721 -0.763452,0.45494 -1.16755,0.6449 -0.338843,0.19852 -0.678672,0.3945401 -1.034487,0.5638201 -0.360115,0.17399 -0.726103,0.33566 -1.102967,0.47301 -0.273576,0.12953 -0.53207,0.28428 -0.78421,0.44932 -0.276596,0.17024 -0.581937,0.28529 -0.904124,0.34634 -0.346582,0.0583 -0.695349,0.11726 -1.046283,0.14114 -0.456787,-3.2e-4 -0.913573,-8.8e-4 -1.370351,0.004 -0.352276,0.004 -0.705569,0.016 -1.053164,0.0763 -0.362297,0.0651 -0.722039,0.13003 -1.092807,0.12739 -0.484355,0.0371 -0.964256,0.10998 -1.448946,0.14155 -0.459655,0.0127 -0.924926,0.0151 -1.375327,0.11492 -0.312048,0.0723 -0.625324,0.1325 -0.941355,0.18647 -0.304147,0.0456 -0.615898,0.0228 -0.914181,-0.0501 -0.836753,-0.30395 -0.071,-0.034 1.799259,1.03741 0.03821,0.0219 -0.08406,-0.0288 -0.123034,-0.0494 -0.130438,-0.0689 -0.215454,-0.18003 -0.287495,-0.3025 -0.229448,-0.23631 -0.517937,-0.41016 -0.734707,-0.65686 -0.173191,-0.29228 -0.318173,-0.6122 -0.593101,-0.83125 -0.233188,-0.22152 -0.372705,-0.5119 -0.524364,-0.78788 -0.147384,-0.3254 -0.267399,-0.66412 -0.45928,-0.9683801 0,0 -2.182419,-0.97616 -2.182419,-0.97616 z" />
      <path
         style="fill:#ff0000;stroke:#000000;stroke-width:0;stroke-dasharray:none;stroke-opacity:1"
         id="path1628"
         d="m -20.564799,10.721034 c 0.418744,0.22634 0.801746,0.50166 1.173407,0.79333 0.760488,0.62951 1.621806,0.99865 2.538866,1.48537 0.03331,0.0176 0.472874,0.14481 0.54253,0.16684 0,0 -1.88659,-1.42008 -1.88659,-1.42008 v 0 c -0.11398,-0.0397 -0.229978,-0.0741 -0.342446,-0.1176 -0.05961,-0.0231 -0.230754,-0.10824 -0.175669,-0.0763 3.386972,1.96033 2.188855,1.3101 1.526161,0.82462 -0.352879,-0.30558 -0.730353,-0.58199 -1.134747,-0.81978 0,0 -2.241512,-0.83635 -2.241512,-0.83635 z" />
      <path
         style="fill:#ff0000;stroke:#000000;stroke-width:0;stroke-dasharray:none;stroke-opacity:1"
         id="path1630"
         d="m -19.916769,10.163474 c 0.01653,0.46642 0.01349,0.93327 0.01096,1.3999 -0.07706,0.95764 0.832104,3.04665 2.32836,1.7014 0.0306,-0.0412 0.0612,-0.0823 0.09181,-0.12352 0,0 -2.064217,-1.19115 -2.064217,-1.19115 v 0 c -0.01759,0.018 -0.03517,0.036 -0.05276,0.054 -0.802071,-0.16666 0.0234,4.6e-4 1.964604,1.13649 0.0228,0.0133 -0.06084,0.003 -0.07803,-0.0168 -0.03522,-0.0404 -0.06839,-0.27183 -0.07028,-0.29586 -0.0058,-0.0735 -0.001,-0.14725 -0.0014,-0.22087 -0.0025,-0.46302 -0.0058,-0.92628 0.01096,-1.3891 0,0 -2.140011,-1.05455 -2.140011,-1.05455 z" />
      <path
         style="fill:#ff0000;stroke:#000000;stroke-width:0;stroke-dasharray:none;stroke-opacity:1"
         id="path1632"
         d="m -15.30315,12.645564 c 0.590426,0.0152 1.163842,0.13534 1.732491,0.27891 0.08316,0.0194 0.166012,0.0402 0.249496,0.0583 0.156917,0.034 0.288246,0.047 0.437128,0.10811 0.07174,0.0294 0.27354,0.14457 0.205934,0.10707 -0.606281,-0.33627 -2.425617,-1.34422 -1.82203,-1.00343 0.751508,0.42429 1.510544,0.83599 2.265816,1.25399 0.589833,0.33292 1.236893,0.53375 1.866003,0.78069 0.526834,0.22881 1.086511,0.34008 1.657571,0.39555 0.450941,0.14337 0.719788,0.14942 1.157567,-0.039 0.542802,-0.2361 1.121301,-0.3709 1.682986,-0.55267 0.07621,-0.0241 0.152417,-0.0482 0.228627,-0.0723 0,0 -1.968382,-1.29058 -1.968382,-1.29058 v 0 c -0.07423,0.025 -0.148472,0.0499 -0.22271,0.0749 -0.565059,0.18048 -1.136563,0.34181 -1.690149,0.55537 -0.418912,0.11083 -0.682299,0.0195 -1.09704,-0.0501 -0.551673,-0.0706 -1.085094,-0.20908 -1.596099,-0.42579 -0.63734,-0.23998 -1.273246,-0.4805 -1.865992,-0.81519 0.599583,0.33639 2.408463,1.32807 1.798748,1.00917 -1.465695,-0.76661 -1.860145,-1.24687 -3.169905,-1.4859 -0.583765,-0.13337 -1.175511,-0.20609 -1.769276,-0.28313 0,0 1.919216,1.39597 1.919216,1.39597 z" />
      <path
         style="fill:#ff0000;stroke:#000000;stroke-width:0;stroke-dasharray:none;stroke-opacity:1"
         id="path1634"
         d="m -10.726357,13.628744 c 0.664965,-0.0104 1.326831,-0.0829 1.990514,-0.12432 0.120305,-0.006 0.240614,-0.0122 0.360922,-0.0182 0,0 -1.911384,-1.32625 -1.911384,-1.32625 v 0 c -0.118959,0.008 -0.237918,0.0155 -0.356876,0.0233 -0.674332,0.0461 -1.349462,0.11201 -2.026266,0.0802 0,0 1.94309,1.36533 1.94309,1.36533 z" />
      <path
         style="fill:#ff0000;stroke:#000000;stroke-width:0;stroke-dasharray:none;stroke-opacity:1"
         id="path1636"
         d="m -1.760845,10.875914 c 0.630852,-0.17243 1.27620499,-0.29302 1.92469899,-0.38415 0.676122,-0.14595 1.36142201,-0.21393 2.05185401,-0.24872 0,0 -1.90568401,-1.3235601 -1.90568401,-1.3235601 v 0 c -0.697886,0.0394 -1.38670299,0.11922 -2.07059999,0.26329 -0.658338,0.10476 -1.309462,0.24554 -1.966105,0.35923 0,0 1.965836,1.3339101 1.965836,1.3339101 z" />
      <path
         style="fill:#ff0000;stroke:#000000;stroke-width:0;stroke-dasharray:none;stroke-opacity:1"
         id="path1638"
         d="m 1.439119,11.871354 c 0.577637,-0.61832 1.244428,-1.1564 1.905332,-1.68945 0.09361,-0.08 0.187214,-0.16014 0.280822,-0.2402101 0,0 -1.998071,-1.19687 -1.998071,-1.19687 v 0 c -0.08877,0.0803 -0.177546,0.1605 -0.266319,0.24076 -0.66055301,0.55939 -1.33238901,1.1072801 -1.96695901,1.6944501 0,0 2.04519501,1.19132 2.04519501,1.19132 z" />
      <path
         style="fill:#ff0000;stroke:#000000;stroke-width:0;stroke-dasharray:none;stroke-opacity:1"
         id="path1640"
         d="m 15.954621,12.222824 c 0.123787,-0.40162 0.315517,-0.77865 0.468352,-1.16984 0.09272,-0.33257 0.263217,-0.63626 0.390918,-0.95597 0.08456,-0.1791701 0.179832,-0.3509901 0.28999,-0.5164801 0,0 -2.065101,-1.1677 -2.065101,-1.1677 v 0 c -0.121936,0.17846 -0.228341,0.36295 -0.316313,0.5596 -0.123462,0.32256 -0.301818,0.62504 -0.382816,0.96275 -0.144759,0.3911101 -0.331918,0.7655201 -0.484395,1.1538401 0,0 2.099365,1.1338 2.099365,1.1338 z" />
      <path
         style="fill:#ff0000;stroke:#000000;stroke-width:0;stroke-dasharray:none;stroke-opacity:1"
         id="path1681"
         d="m 16.739062,8.0052939 c -0.21537,0.30441 -0.45105,0.58698 -0.738364,0.83069 -0.21025,0.25695 -0.468508,0.44743 -0.733517,0.64443 -0.284352,0.16504 -0.554641,0.34318 -0.823614,0.5299901 -0.04413,0.024 -0.08676,0.0506 -0.132392,0.0718 -0.148825,0.0688 -0.132267,0.0319 -0.272184,0.12688 -0.115162,0.0782 -0.206538,0.16843 -0.329327,0.23761 -0.297061,0.0901 -0.543789,0.26023 -0.8026,0.41966 -0.290505,0.11586 -0.511906,0.32569 -0.755001,0.50859 -0.167263,0.093 -0.08476,0.041 -0.246681,0.15735 0,0 2.023656,1.24297 2.023656,1.24297 v 0 c 0.160155,-0.10812 0.07625,-0.0522 0.25194,-0.16752 0.232881,-0.18413 0.468982,-0.35957 0.740206,-0.49001 0.258023,-0.16296 0.529639,-0.28819 0.807698,-0.41562 0.240653,-0.16113 0.473175,-0.32379 0.73583,-0.45182 0.267144,-0.19171 0.555531,-0.34775 0.826865,-0.53373 0.271587,-0.19871 0.519836,-0.4143 0.743944,-0.66355 0.276659,-0.2578901 0.510254,-0.5470601 0.752703,-0.8332301 0,0 -2.049162,-1.21446 -2.049162,-1.21446 z" />
    </g>
  </g>
</svg>
