<?xml version="1.0" encoding="UTF-8" standalone="no"?>
<!-- Created with Inkscape (http://www.inkscape.org/) -->

<svg
   width="20mm"
   height="18mm"
   viewBox="0 0 20 18"
   version="1.1"
   id="svg5"
   inkscape:version="1.2.1 (9c6d41e410, 2022-07-14)"
   sodipodi:docname="lostlife2.svg"
   xmlns:inkscape="http://www.inkscape.org/namespaces/inkscape"
   xmlns:sodipodi="http://sodipodi.sourceforge.net/DTD/sodipodi-0.dtd"
   xmlns="http://www.w3.org/2000/svg"
   xmlns:svg="http://www.w3.org/2000/svg">
  <sodipodi:namedview
     id="namedview7"
     pagecolor="#ffffff"
     bordercolor="#999999"
     borderopacity="1"
     inkscape:showpageshadow="0"
     inkscape:pageopacity="0"
     inkscape:pagecheckerboard="0"
     inkscape:deskcolor="#d1d1d1"
     inkscape:document-units="mm"
     showgrid="false"
     inkscape:zoom="0.914906"
     inkscape:cx="181.4394"
     inkscape:cy="547.05074"
     inkscape:window-width="1350"
     inkscape:window-height="1230"
     inkscape:window-x="723"
     inkscape:window-y="72"
     inkscape:window-maximized="0"
     inkscape:current-layer="layer3" />
  <defs
     id="defs2" />
  <g
     inkscape:groupmode="layer"
     id="layer3"
     inkscape:label="Layer 3"
     transform="translate(-1.2048481,-0.70786278)">
    <g
       id="g660"
       transform="matrix(0.39548885,0,0,0.37940606,0.72834425,0.43929535)"
       style="stroke-width:2.58155">
      <path
         style="fill:#0000ff;stroke:#000000;stroke-width:0;stroke-dasharray:none;stroke-opacity:1"
         d="M 26.321345,46.619649 C 18.598229,37.269333 11.865144,28.933718 11.959867,28.840017 c 0.03808,-0.03769 0.665903,0.204192 1.395158,0.537465 2.315194,1.058069 2.828268,1.161054 5.784172,1.161054 2.121055,0 2.820685,-0.05537 3.569294,-0.282493 2.143142,-0.650217 4.368849,-1.914798 5.925925,-3.366941 l 0.804767,-0.750531 1.156696,0.972378 c 1.493789,1.255759 2.585637,1.896814 4.342424,2.549557 1.203023,0.446991 1.660235,0.535973 2.975877,0.579161 1.516493,0.04979 1.526034,0.04799 0.390569,-0.07255 -3.095704,-0.328681 -5.650313,-1.494773 -7.873634,-3.594053 l -0.967822,-0.913829 -1.219907,1.152901 c -1.9586,1.85102 -4.041837,2.912635 -6.691055,3.409752 -6.622338,1.242658 -13.2557806,-2.779717 -14.8084925,-8.979552 -0.3311896,-1.322409 -0.3311896,-3.877312 0,-5.199721 C 8.2965504,9.8427816 14.929993,5.8204015 21.552331,7.0630651 c 2.595298,0.4869987 4.716217,1.5513214 6.578584,3.3012769 l 1.118337,1.05083 0.842065,-0.851649 c 2.552585,-2.5816342 5.761886,-3.9082048 9.454928,-3.9082048 5.031844,0 9.419103,2.6099484 11.48557,6.8326878 1.65192,3.37562 1.652977,6.470551 0.0032,9.841573 -1.85603,3.792863 -5.694647,6.354156 -10.247454,6.83754 -1.129202,0.119887 -1.117633,0.121973 0.387967,0.06984 1.574148,-0.0545 2.940532,-0.416309 4.476655,-1.185367 1.196248,-0.598902 1.641628,-1.21591 -7.722493,10.698492 -6.86141,8.730091 -8.298454,10.515426 -8.464045,10.515426 -0.0732,0 -1.488215,-1.640638 -3.144477,-3.645862 z"
         id="path1405"
         transform="matrix(1.0440716,0,0,1.0316804,-3.7364641,-3.707506)" />
      <path
         style="fill:#0000ff;stroke:#000000;stroke-width:0;stroke-dasharray:none;stroke-opacity:1"
         d="M 28.437503,48.994879 C 26.036457,46.174775 14.889131,32.522788 12.960658,30.040586 c -0.409974,-0.527691 -0.702847,-0.959438 -0.650831,-0.959438 0.05202,0 0.73698,0.270018 1.522141,0.600039 0.78516,0.330021 1.841934,0.675419 2.348389,0.767551 1.304972,0.237391 4.925685,0.205317 6.16549,-0.05461 1.877399,-0.39361 4.148712,-1.596263 6.087795,-3.223463 l 1.027431,-0.86218 1.225563,0.986777 c 2.38013,1.916391 4.627072,2.863043 6.997366,2.948032 1.313241,0.04709 1.389519,0.03612 0.69834,-0.10042 -3.927759,-0.775911 -5.602602,-1.554925 -7.886291,-3.668122 L 29.457056,25.513319 28.28157,26.61785 c -2.711791,2.548107 -5.581671,3.692773 -9.25222,3.690301 C 13.44283,30.304387 8.5828693,26.817035 6.9747177,21.658127 6.5081533,20.161399 6.5070572,17.130068 6.9725312,15.626827 8.560416,10.498846 13.464383,6.9805491 19.029344,6.9768019 c 3.571799,-0.0024 6.489137,1.1266838 9.061576,3.5070751 0.560873,0.519 1.083622,0.943636 1.161665,0.943636 0.07804,0 0.453231,-0.318211 0.833751,-0.707134 3.570052,-3.6489017 8.792578,-4.8969526 13.706773,-3.2755723 2.008247,0.662597 3.367309,1.50477 4.916268,3.0464763 1.125481,1.12021 1.447987,1.563972 2.130733,2.931858 0.442484,0.886519 0.914147,2.086528 1.048141,2.666683 1.027108,4.44714 -1.131399,9.312801 -5.309115,11.96769 -1.623303,1.031593 -3.200308,1.588958 -5.869001,2.074303 l -0.775933,0.141115 1.008714,0.01548 c 1.318239,0.02023 2.913284,-0.322619 4.137655,-0.889381 0.540928,-0.250396 0.983505,-0.413104 0.983505,-0.361574 0,0.318658 -16.343974,21.080909 -16.586522,21.070368 -0.05283,-0.0023 -0.520848,-0.503123 -1.040056,-1.112947 z"
         id="path1490"
         transform="matrix(1.0440716,0,0,1.0316804,-3.7364641,-3.707506)" />
      <path
         style="fill:#0000ff;stroke:#000000;stroke-width:0;stroke-dasharray:none;stroke-opacity:1"
         d="M 27.353357,47.693296 C 22.040872,41.362668 12.207608,29.208992 12.313432,29.104313 c 0.03199,-0.03164 0.723258,0.224668 1.536154,0.569578 1.787149,0.758285 2.823529,0.939676 5.377499,0.941196 2.410995,0.0014 3.39951,-0.173206 5.099633,-0.900946 1.589668,-0.68046 2.722987,-1.382137 4.103547,-2.540648 l 1.024054,-0.859345 1.360279,1.054464 c 1.698113,1.316347 2.459432,1.752069 4.089578,2.340572 1.177849,0.425217 3.866132,0.814579 3.866132,0.559958 0,-0.04713 -0.506296,-0.169087 -1.125103,-0.271023 -2.719642,-0.448007 -5.124028,-1.627499 -7.126151,-3.495792 l -1.060929,-0.990013 -1.17602,1.105035 C 25.569746,29.165986 22.700167,30.310625 19.02935,30.308151 13.464388,30.304401 8.5604219,26.786107 6.9725369,21.658127 6.7159144,20.829376 6.646673,20.199604 6.646673,18.694284 c 0,-2.324853 0.1320283,-2.91823 1.0885871,-4.892421 C 8.9364006,11.32289 11.005875,9.34723 13.68312,8.123631 18.578876,5.8860926 24.678759,6.9658148 28.366317,10.72266 c 0.380519,0.387669 0.767526,0.704853 0.860013,0.704853 0.09249,0 0.479491,-0.318211 0.860011,-0.707134 3.570053,-3.6489017 8.792579,-4.8969526 13.706773,-3.2755723 2.008248,0.662597 3.367309,1.50477 4.916268,3.0464763 1.125481,1.12021 1.447987,1.563972 2.130734,2.931858 0.9423,1.887906 1.291763,3.237604 1.291763,4.98907 0,3.599021 -2.0227,7.278072 -5.177802,9.417811 -1.606784,1.089697 -3.242243,1.734443 -5.545596,2.186242 l -1.474273,0.289177 1.474273,-0.06517 c 1.484059,-0.06561 2.856322,-0.410866 4.072601,-1.024659 0.320649,-0.161816 0.582999,-0.24707 0.582999,-0.189452 0,0.322612 -16.322594,21.087074 -16.574501,21.084919 -0.05944,-4.22e-4 -1.020736,-1.088509 -2.136223,-2.41778 z"
         id="path1492"
         transform="matrix(1.0440716,0,0,1.0316804,-3.7364641,-3.707506)" />
      <path
         style="fill:#0000ff;stroke:#000000;stroke-width:0;stroke-dasharray:none;stroke-opacity:1"
         d="M 28.437705,48.994879 C 25.641925,45.710444 15.024752,32.709145 12.938472,30.015232 c -0.858261,-1.108229 -0.879942,-1.103806 1.20406,-0.245655 1.784242,0.734717 2.943405,0.897424 5.77068,0.810011 2.148102,-0.06642 2.435519,-0.110791 3.686884,-0.569232 1.542284,-0.565019 3.606891,-1.792796 4.949539,-2.943385 l 0.912148,-0.78167 1.046174,0.841961 c 2.643241,2.127286 5.58513,3.327843 7.729919,3.15451 0.508858,-0.04112 0.370509,-0.09461 -0.834213,-0.322522 -2.745618,-0.519423 -4.89122,-1.596779 -6.884609,-3.456923 l -1.060929,-0.990013 -1.136636,1.068028 c -1.394634,1.310452 -2.270308,1.91558 -3.751917,2.592729 C 21.209927,30.708549 17.058668,30.70407 13.68312,29.161329 11.005875,27.937726 8.9364006,25.962066 7.7352601,23.483092 6.7822338,21.516192 6.646673,20.913393 6.646673,18.64248 c 0,-2.270915 0.1355608,-2.873712 1.0885871,-4.840615 2.0280335,-4.1855535 6.4372609,-6.8239844 11.4039379,-6.8239844 3.510618,0 6.400447,1.1390864 9.035708,3.5616134 0.5313,0.488412 1.012027,0.888022 1.068278,0.888022 0.05625,0 0.620127,-0.486592 1.253056,-1.081315 2.294289,-2.1558041 4.409444,-3.1307205 7.669666,-3.5351014 2.522226,-0.3128431 5.81266,0.387568 8.130954,1.730779 0.63786,0.3695722 1.641353,1.181302 2.430832,1.9663084 1.156441,1.14989 1.453749,1.560022 2.12532,2.931858 0.969742,1.980921 1.275307,3.148 1.278093,4.881568 0.0026,1.651068 -0.308189,3.04269 -1.020087,4.566847 -1.799966,3.8537 -4.961443,6.189441 -9.624943,7.111036 -1.364435,0.269639 -1.37772,0.276398 -0.575407,0.292872 1.135006,0.0233 3.009596,-0.383922 4.176392,-0.907256 0.537361,-0.241019 0.976396,-0.390738 0.975633,-0.332711 -0.0043,0.329723 -16.328353,21.06524 -16.575866,21.055428 -0.05792,-0.0023 -0.530026,-0.503122 -1.049122,-1.112946 z"
         id="path1494"
         transform="matrix(1.0440716,0,0,1.0316804,-3.7364641,-3.707506)" />
      <path
         style="fill:#0000ff;stroke:#000000;stroke-width:0;stroke-dasharray:none;stroke-opacity:1"
         d="M 28.043817,48.538523 C 24.534526,44.365732 15.933164,33.824384 13.241533,30.397675 c -1.185122,-1.50878 -1.203469,-1.494897 0.854698,-0.646772 1.767346,0.728286 3.145364,0.920574 5.896493,0.822789 2.460059,-0.08744 3.082447,-0.239694 5.125217,-1.253814 1.299265,-0.64501 2.129242,-1.192206 3.419952,-2.254739 l 0.930611,-0.766096 1.275593,1.015431 c 2.193492,1.746118 5.188,2.984119 7.237347,2.992089 0.962608,0.0038 0.742585,-0.107747 -0.773893,-0.392141 -2.623488,-0.492 -4.689745,-1.546948 -6.69507,-3.41823 l -1.054356,-0.983878 -1.136636,1.068028 c -1.963834,1.845293 -3.598786,2.765651 -5.96997,3.360651 C 16.492154,31.411283 10.23778,28.647913 7.7352601,23.483089 6.7822338,21.516189 6.646673,20.91339 6.646673,18.642477 c 0,-2.270914 0.1355608,-2.873712 1.0885871,-4.840614 1.5632283,-3.226267 4.6638749,-5.6304404 8.4060589,-6.5178752 2.736318,-0.6488993 6.261379,-0.2740642 8.67429,0.9223752 1.151397,0.57092 2.685407,1.6206064 3.24682,2.221724 0.213382,0.228471 0.584201,0.554463 0.824042,0.724426 l 0.436074,0.309023 1.115792,-1.069482 c 3.580352,-3.4317546 8.441994,-4.5167422 13.305861,-2.9695095 1.969587,0.6265413 3.401095,1.5116293 4.963258,3.0687385 2.24695,2.239682 3.41644,4.951115 3.41644,7.920928 0,2.969826 -1.165987,5.667301 -3.421643,7.915863 -1.962341,1.956173 -4.143583,3.091008 -6.928405,3.604649 -0.755743,0.139393 -1.408997,0.290755 -1.451674,0.336362 -0.04268,0.0456 0.481079,0.04205 1.163901,-0.0079 1.287308,-0.09416 2.988228,-0.539797 3.996055,-1.04695 0.320072,-0.161063 0.581951,-0.235582 0.581951,-0.165596 0,0.341927 -16.315241,21.063352 -16.584464,21.063352 -0.06189,0 -0.707995,-0.708064 -1.4358,-1.573476 z"
         id="path1496"
         transform="matrix(1.0440716,0,0,1.0316804,-3.7364641,-3.707506)" />
      <path
         style="display:inline;fill:#0000ff;stroke:#000000;stroke-width:0;stroke-dasharray:none;stroke-opacity:1"
         d="M 28.748349,49.382754 C 25.901556,46.10465 12.19612,29.220357 12.299211,29.11838 c 0.03801,-0.0376 0.77084,0.216286 1.628518,0.564186 1.007436,0.408645 2.013506,0.693203 2.842287,0.803914 1.649096,0.220295 5.039595,0.07728 6.171255,-0.260301 1.428753,-0.42621 3.748393,-1.699084 5.171218,-2.837638 l 1.348333,-1.07895 1.411186,1.078855 c 1.674401,1.280079 3.48027,2.193627 5.168561,2.614658 1.089269,0.271644 2.586294,0.420076 2.402433,0.238204 -0.03776,-0.03735 -0.710689,-0.206529 -1.49539,-0.375943 -2.609257,-0.563323 -4.470796,-1.538784 -6.43992,-3.37456 l -1.049567,-0.978491 -1.136636,1.068028 c -1.963834,1.845293 -3.598786,2.765651 -5.96997,3.360651 C 16.492154,31.411283 10.23778,28.647913 7.7352601,23.483089 6.7822338,21.516189 6.646673,20.91339 6.646673,18.642477 c 0,-2.270914 0.1355608,-2.873712 1.0885871,-4.840614 1.5632283,-3.226267 4.6638749,-5.6304404 8.4060589,-6.5178752 2.736318,-0.6488993 6.261379,-0.2740642 8.67429,0.9223752 1.151397,0.57092 2.685407,1.6206064 3.24682,2.221724 0.213382,0.228471 0.578014,0.550105 0.810294,0.714742 l 0.422324,0.29934 1.243577,-1.150413 c 2.191431,-2.0272593 4.556961,-3.1270597 7.455752,-3.4663869 4.172011,-0.4883684 8.182848,0.9398216 10.99019,3.9134149 2.010253,2.129304 3.13933,4.889092 3.13933,7.673427 0,2.974692 -1.171661,5.690786 -3.414897,7.916258 -1.970862,1.955255 -4.074617,3.05584 -6.912551,3.616323 -0.768174,0.15171 -1.257011,0.304245 -1.086307,0.338965 0.617206,0.125535 2.857459,-0.318284 4.091949,-0.810659 0.694096,-0.276838 1.261991,-0.456962 1.261991,-0.400273 0,0.325656 -16.320836,21.039283 -16.577282,21.039101 -0.05791,-4.2e-5 -0.390209,-0.328169 -0.73845,-0.729172 z"
         id="path1498"
         transform="matrix(1.0440716,0,0,1.0316804,-3.7364641,-3.707506)" />
      <path
         style="fill:#0000ff;stroke:#000000;stroke-width:0;stroke-dasharray:none;stroke-opacity:1"
         d="M 27.651967,48.077995 C 25.250521,45.23131 21.818478,41.046911 17.107113,35.221543 12.339532,29.326669 12.149478,29.081148 12.35391,29.081148 c 0.08654,0 0.636048,0.200869 1.221116,0.446374 2.215149,0.929521 2.692064,1.01294 5.719359,1.00039 2.473287,-0.01025 2.907144,-0.0509 3.7864,-0.354736 1.909334,-0.659785 3.872396,-1.792827 5.568576,-3.214074 l 0.81971,-0.686845 0.57697,0.481844 c 2.531056,2.113765 5.775605,3.555126 8.002701,3.555126 0.708401,0 0.445071,-0.112263 -0.912389,-0.388974 -2.615571,-0.533168 -4.654498,-1.586326 -6.617489,-3.418105 l -1.047973,-0.97792 -1.130994,1.056088 c -1.966337,1.836108 -3.62721,2.768191 -5.988378,3.360677 C 16.483765,31.41339 10.241364,28.655308 7.7352601,23.483089 6.7822338,21.516189 6.646673,20.91339 6.646673,18.642477 c 0,-2.270914 0.1355608,-2.873712 1.0885871,-4.840614 1.5436308,-3.185818 4.5280569,-5.5386063 8.1916159,-6.4579027 3.908886,-0.9808575 8.339091,-0.042876 11.293629,2.3911341 0.505734,0.4166346 1.178847,0.9716796 1.495804,1.2334306 l 0.576286,0.475912 1.244802,-1.151547 c 3.409024,-3.1536357 7.552127,-4.223573 12.222645,-3.1564405 5.388403,1.2311549 9.363854,6.0183145 9.363854,11.2757615 0,5.49173 -4.09002,10.181748 -9.990015,11.455528 -0.778659,0.168106 -1.452457,0.345369 -1.497333,0.393916 -0.132071,0.142868 1.857869,-0.104097 2.840673,-0.352547 0.49766,-0.125809 1.283292,-0.394303 1.745849,-0.596659 0.462556,-0.202354 0.841011,-0.332353 0.841011,-0.28889 0,0.391559 -16.273636,21.088441 -16.581512,21.088441 -0.0631,0 -0.88687,-0.915302 -1.830602,-2.034005 z"
         id="path1500"
         transform="matrix(1.0440716,0,0,1.0316804,-3.7364641,-3.707506)" />
      <path
         style="fill:#0000ff;stroke:#000000;stroke-width:0;stroke-dasharray:none;stroke-opacity:1"
         d="M 27.258155,47.617464 C 23.7116,43.389344 14.129004,31.619885 12.63474,29.65681 c -0.51576,-0.677573 -0.399088,-0.70658 0.775403,-0.192777 2.308051,1.009701 4.849951,1.340541 7.865101,1.02368 2.304556,-0.242186 4.43308,-1.228371 6.960443,-3.224907 l 1.233012,-0.974041 0.566828,0.436756 c 1.778421,1.370315 2.399088,1.780382 3.528224,2.331066 1.512008,0.737411 2.584868,1.062148 3.947052,1.194705 1.34071,0.130469 1.176232,-0.01494 -0.37445,-0.331039 C 34.524772,29.3879 32.481557,28.33365 30.52759,26.510292 l -1.039245,-0.969776 -1.141402,1.046885 c -1.407869,1.29129 -2.287315,1.896744 -3.738326,2.573646 -1.671458,0.779742 -2.759806,1.022462 -4.96804,1.107952 -1.667979,0.06457 -2.211071,0.02426 -3.431446,-0.254694 C 12.443994,29.153662 9.3138889,26.741142 7.7352601,23.483089 6.7822338,21.516189 6.646673,20.91339 6.646673,18.642477 c 0,-2.270914 0.1355608,-2.873712 1.0885871,-4.840614 1.1937732,-2.463769 3.2293689,-4.4157119 5.9085849,-5.6657741 1.697997,-0.792248 2.777215,-1.0343129 4.993973,-1.1201331 1.670434,-0.064669 2.210392,-0.02442 3.43856,0.2563187 2.322861,0.5309646 4.172194,1.5416051 6.483163,3.5429805 l 0.729891,0.632109 1.246383,-1.153011 c 3.410698,-3.155183 7.552851,-4.2252326 12.224227,-3.1579035 5.420584,1.238509 9.363854,5.9869145 9.363854,11.2757615 0,3.09046 -1.291903,5.974712 -3.689419,8.236845 -1.724894,1.627494 -3.438305,2.517794 -6.172469,3.207257 -0.938879,0.236753 -1.497551,0.434607 -1.241494,0.439671 0.786619,0.01556 3.209769,-0.543943 4.151244,-0.958519 0.490777,-0.216113 0.892323,-0.340109 0.892323,-0.275549 0,0.373065 -16.294277,21.050084 -16.588266,21.050084 -0.06888,0 -1.066828,-1.12254 -2.21766,-2.494536 z"
         id="path1502"
         transform="matrix(1.0440716,0,0,1.0316804,-3.7364641,-3.707506)" />
      <path
         style="fill:#0000ff;stroke:#000000;stroke-width:0;stroke-dasharray:none;stroke-opacity:1"
         d="M 27.56578,48.00124 C 22.532841,42.020624 12.191821,29.22461 12.302823,29.114807 c 0.03602,-0.03563 0.790367,0.215573 1.676331,0.558224 2.006612,0.77607 3.795582,1.022521 6.319278,0.870552 2.938393,-0.176938 5.191059,-1.105457 7.91796,-3.263673 l 1.253475,-0.992068 1.233713,0.944078 c 1.400447,1.071668 3.357961,2.143379 4.730216,2.589725 0.902468,0.293543 2.870952,0.596128 2.870952,0.441309 0,-0.04203 -0.541213,-0.194827 -1.202696,-0.339547 -2.603238,-0.569545 -4.538528,-1.547194 -6.353924,-3.209811 -0.606343,-0.555315 -1.173838,-1.009665 -1.2611,-1.009665 -0.08726,0 -0.639545,0.436545 -1.227299,0.9701 -1.345323,1.221261 -2.229128,1.823459 -3.651112,2.487756 -1.889791,0.882839 -2.849371,1.070686 -5.469419,1.070686 -2.62805,0 -3.578554,-0.187299 -5.495353,-1.082869 C 10.973147,27.901798 8.9384414,25.95376 7.7252258,23.483089 6.7724272,21.542749 6.6542605,21.008651 6.6542605,18.642477 c 0,-2.367561 0.1179849,-2.899912 1.0743417,-4.847453 1.4910097,-3.036316 4.2238678,-5.2814765 7.7691778,-6.3827138 1.006605,-0.312669 1.473687,-0.3598284 3.563824,-0.3598284 2.713618,0 3.641495,0.1804465 5.57629,1.0844373 1.302801,0.6087061 2.288995,1.2724491 3.687457,2.4817899 l 0.961261,0.831263 1.247793,-1.154314 c 2.188797,-2.0248217 4.56839,-3.1368086 7.450114,-3.4814489 2.999653,-0.358744 6.46289,0.4355686 8.806991,2.0199315 6.342289,4.2867154 7.148924,12.5825514 1.724451,17.7351174 -1.737305,1.650223 -3.478109,2.58332 -6.010268,3.2216 -1.401498,0.353275 -1.86704,0.524522 -1.394653,0.513012 0.733125,-0.01786 2.721896,-0.484822 3.750344,-0.880579 0.661483,-0.254545 1.202697,-0.413982 1.202697,-0.354308 0,0.381876 -16.290644,21.043017 -16.591742,21.043017 -0.07165,0 -0.929598,-0.949842 -1.906559,-2.11076 z"
         id="path1504"
         transform="matrix(1.0440716,0,0,1.0316804,-3.7364641,-3.707506)" />
      <path
         style="fill:#0000ff;stroke:#000000;stroke-width:0;stroke-dasharray:none;stroke-opacity:1"
         d="M 27.567867,48.00124 C 23.677197,43.372538 13.500258,30.871735 12.571129,29.580055 12.37375,29.305657 12.277241,29.081148 12.356667,29.081148 c 0.07943,0 0.656223,0.208773 1.28177,0.463943 2.292906,0.935302 4.453424,1.211064 7.317308,0.933965 2.613718,-0.252895 4.788994,-1.227021 7.400063,-3.313872 l 1.094158,-0.87449 1.362454,1.020409 c 1.780467,1.333473 4.087602,2.448049 5.739707,2.772847 1.685806,0.331423 2.177197,0.209724 0.588722,-0.145804 -2.650838,-0.593305 -4.51407,-1.530755 -6.406588,-3.223364 -0.621634,-0.555968 -1.184925,-1.010851 -1.251759,-1.010851 -0.06683,0 -0.617211,0.441626 -1.22306,0.981391 -1.398346,1.245821 -2.243036,1.818799 -3.650825,2.476465 -1.889791,0.882839 -2.849371,1.070686 -5.469419,1.070686 -1.748375,0 -2.578884,-0.06789 -3.336513,-0.272753 C 12.395869,29.038531 9.3659965,26.671254 7.8310106,23.731351 6.8556381,21.863255 6.646673,20.965368 6.646673,18.642477 c 0,-2.322891 0.2089651,-3.220778 1.1843376,-5.088874 1.5002203,-2.873316 4.2581924,-5.0825267 7.6667694,-6.1412928 1.006605,-0.312669 1.473687,-0.3598284 3.563824,-0.3598284 2.713618,0 3.641495,0.1804465 5.57629,1.0844373 1.299027,0.6069433 2.288921,1.2724109 3.672918,2.4691639 l 0.946724,0.818638 1.210323,-1.091372 c 2.034843,-1.8348588 3.95563,-2.8532016 6.362616,-3.3732659 1.457982,-0.3150187 4.25533,-0.2484537 5.851973,0.1392519 6.923032,1.6810873 11.014227,8.433972 8.899905,14.690094 -0.597612,1.768291 -1.508658,3.197958 -2.944383,4.6205 -1.887374,1.870049 -3.154253,2.531965 -6.996708,3.655629 l -0.775934,0.226909 0.775934,-0.08302 c 1.059668,-0.113383 2.457096,-0.470182 3.529071,-0.901058 0.491561,-0.197581 0.893748,-0.302797 0.893748,-0.233812 0,0.386443 -16.280212,21.037428 -16.584866,21.037428 -0.07543,0 -0.935535,-0.949842 -1.911348,-2.11076 z"
         id="path1506"
         transform="matrix(1.0440716,0,0,1.0316804,-3.7364641,-3.707506)" />
      <path
         style="fill:#0000ff;stroke:#000000;stroke-width:0;stroke-dasharray:none;stroke-opacity:1"
         id="path1565"
         d="m 8.9985559,24.684517 c 0.2832822,0.332381 0.5511369,0.679407 0.8101901,1.031215 0.229802,0.304285 0.439062,0.622572 0.649135,0.940217 0.198497,0.275985 0.374758,0.566521 0.582772,0.835856 0.167014,0.274696 0.34819,0.536312 0.554688,0.783703 0.233998,0.277408 0.4517,0.565295 0.639685,0.874962 0.161187,0.238403 0.379863,0.427302 0.560713,0.650046 0.119351,0.14456 0.0604,0.07211 0.176887,0.217336 0,0 1.95139,0.813163 1.95139,0.813163 v 0 c -0.12998,-0.129404 -0.06905,-0.05827 -0.180976,-0.214893 -0.192466,-0.209171 -0.354638,-0.440085 -0.574358,-0.62512 -0.210223,-0.30146 -0.386897,-0.625182 -0.634028,-0.902708 -0.209509,-0.236381 -0.417137,-0.477815 -0.550633,-0.766254 -0.199742,-0.277165 -0.418568,-0.540129 -0.593639,-0.835235 -0.232472,-0.305001 -0.414483,-0.645923 -0.650169,-0.949713 -0.273473,-0.337986 -0.542907,-0.68472 -0.779081,-1.048435 0,0 -1.9625761,-0.80414 -1.9625761,-0.80414 z"
         transform="matrix(1.0440716,0,0,1.0316804,-3.7364641,-3.707506)" />
      <path
         style="fill:#0000ff;stroke:#000000;stroke-width:0;stroke-dasharray:none;stroke-opacity:1"
         id="path1575"
         d="m 46.159385,25.756585 c -0.255319,0.26659 -0.557019,0.485056 -0.787546,0.774264 -0.177762,0.196336 -0.333452,0.403543 -0.464205,0.632859 -0.123681,0.248171 -0.283186,0.475061 -0.398071,0.727961 -0.145903,0.227984 -0.267909,0.471106 -0.431203,0.687756 -0.217031,0.225739 -0.427044,0.4567 -0.621467,0.703283 -0.175298,0.179822 -0.358748,0.351491 -0.528229,0.536605 0,0 1.809789,1.085518 1.809789,1.085518 v 0 c 0.17364,-0.187699 0.359569,-0.363481 0.532876,-0.551377 0.19767,-0.246408 0.411675,-0.476472 0.627751,-0.70642 0.171489,-0.229491 0.301915,-0.486234 0.453982,-0.728152 0.109294,-0.247327 0.271987,-0.464258 0.389765,-0.707376 0.129025,-0.217213 0.278458,-0.417052 0.443368,-0.60955 0.220771,-0.276299 0.504113,-0.496676 0.769564,-0.729214 0,0 -1.796374,-1.116157 -1.796374,-1.116157 z"
         transform="matrix(1.0440716,0,0,1.0316804,-3.7364641,-3.707506)" />
      <path
         style="fill:#0000ff;stroke:#000000;stroke-width:0;stroke-dasharray:none;stroke-opacity:1"
         id="path1642"
         d="m 12.766264,28.897835 c 6.258596,3.576499 -1.125,-0.641947 0.451074,0.261229 0.627481,0.35958 1.251583,0.725248 1.884766,1.074668 0.536089,0.295839 -2.118448,-1.229042 -1.593448,-0.913908 0.614049,0.368588 1.240424,0.716192 1.860637,1.074291 0.309845,0.129803 0.604293,0.280928 0.92945,0.37026 0.351304,0.05641 0.702851,0.07286 1.052338,0.1394 0.0535,0.009 0.107003,0.01794 0.160503,0.02691 0,0 -1.615398,-1.216797 -1.615398,-1.216797 v 0 c -0.05302,-0.009 -0.10604,-0.0181 -0.159059,-0.02718 -0.345298,-0.05503 -0.699919,-0.05473 -1.036023,-0.160277 -0.31203,-0.110921 -0.611375,-0.256059 -0.906258,-0.406037 4.095001,2.372755 -0.0489,-0.02973 -0.268189,-0.150606 -0.531476,-0.29302 1.049323,0.610161 1.573869,0.915438 0.05137,0.02989 -0.102931,-0.05944 -0.154322,-0.08929 -0.626402,-0.363832 -1.253837,-0.725885 -1.879055,-1.09175 -0.531115,-0.310798 1.064497,0.617698 1.596746,0.926547 0,0 -1.897631,-0.732887 -1.897631,-0.732887 z"
         transform="matrix(1.0440716,0,0,1.0316804,-3.7364641,-3.707506)" />
      <path
         style="display:inline;fill:#ffffff;stroke:#000000;stroke-width:0;stroke-dasharray:none;stroke-opacity:1"
         d="M -5.6839719,28.134688 C -13.040536,19.44263 -19.454055,11.693857 -19.363829,11.60676 c 0.03627,-0.03509 0.634297,0.189806 1.328941,0.499621 2.205312,0.98358 2.694034,1.079308 5.509645,1.079308 2.020387,0 2.6868103,-0.05144 3.3998895,-0.262598 2.0414238,-0.604454 4.1614954,-1.780001 5.6446704,-3.1299119 l 0.7665707,-0.6976934 1.1017995,0.9039291 c 1.42288931,1.1673502 2.46291663,1.7632692 4.1363257,2.3700742 1.1459221,0.415513 1.5814342,0.498232 2.8346297,0.538378 1.4445216,0.04634 1.4536061,0.04459 0.3720362,-0.06744 C 2.7819014,12.534889 0.34853873,11.450883 -1.7692565,9.4993948 L -2.691146,8.6498964 -3.853155,9.7216347 c -1.8656404,1.7207023 -3.8500036,2.7075833 -6.373485,3.1697023 -6.30803,1.155179 -12.626638,-2.584013 -14.105655,-8.3473752 -0.315471,-1.2293134 -0.315471,-3.60434604 0,-4.83365941 1.479017,-5.76336019 7.797625,-9.50255669 14.105655,-8.34737809 2.4721203,0.452713 4.492377,1.4421046 6.2663533,3.0688616 l 1.0652576,0.9768537 0.8020989,-0.7916917 c 2.43143625,-2.3998858 5.4884163,-3.6330636 9.0061764,-3.6330636 4.7930268,0 8.9720618,2.426204 10.9404478,6.3516559 1.573517,3.1379752 1.574522,6.0150184 0.0032,9.1487255 -1.76793,3.5258343 -5.424363,5.9068013 -9.7610821,6.3561603 -1.0756134,0.111441 -1.0645928,0.113384 0.3695494,0.06491 1.4994374,-0.05064 2.8009687,-0.386992 4.2641847,-1.10191 1.13947,-0.556733 1.56371,-1.130299 -7.3559711,9.945306 -6.535754,8.115492 -7.9045937,9.775129 -8.0623246,9.775129 -0.069727,0 -1.4175821,-1.525131 -2.9952347,-3.389177 z"
         id="path1417"
         transform="translate(29.786757,14.170399)" />
      <path
         style="display:inline;fill:#ffffff;stroke:#000000;stroke-width:0;stroke-dasharray:none;stroke-opacity:1"
         id="path1626"
         d="m -20.844646,9.1457706 c 0.1646,0.2834758 0.280447,0.5882482 0.413201,0.8864704 0.120003,0.269579 0.264158,0.526503 0.436518,0.76652 0.222388,0.210296 0.391858,0.455786 0.543832,0.718374 0.149489,0.263252 0.395229,0.449539 0.621116,0.645731 0.611347,0.710625 1.456145,1.3015 2.41189,1.453847 0.293227,0.04215 0.576749,0.03514 0.86388,-0.03063 0.282931,-0.03748 0.554243,-0.116542 0.832404,-0.176775 0.388289,-0.0696 0.785194,-0.07169 1.178604,-0.07799 0.428929,-0.05572 0.857673,-0.107843 1.289584,-0.133826 0.337327,0.0173 0.659561,-0.07312 0.989153,-0.124505 0.299453,-0.04055 0.602213,-0.04204 0.903823,-0.04836 0.402306,-0.0037 0.8046538,-0.0021 1.2069759,-0.0021 0.3178974,-0.06173 0.6473918,-0.07617 0.9602118,-0.158977 0.3026032,-0.0734 0.5956835,-0.19538 0.8475797,-0.377644 0.2197042,-0.133868 0.4328349,-0.276007 0.669857,-0.379979 0.337907,-0.112323 0.652581,-0.280949 0.9733107,-0.433232 0.3177016,-0.159773 0.6231645,-0.339764 0.9251683,-0.526859 0.3637512,-0.164396 0.7122157,-0.364893 1.0379447,-0.593997 0.2673337,-0.187794 0.5354128,-0.375228 0.8186949,-0.540463 0.284225,-0.1802731 0.5967283,-0.3210103 0.9184009,-0.422196 0.2277906,-0.1081659 0.4308703,-0.2761663 0.6949597,-0.2143041 -0.203787,-0.1578086 0.5564768,0.3007647 0.34762573,0.1846152 C -3.5107602,8.1408895 -3.0594065,8.2437154 -2.4647367,8.7686363 c 0.22995,0.1660417 0.4090577,0.3815242 0.6045818,0.5826427 0.1926483,0.1133787 0.2248258,0.2996288 0.3364227,0.4736009 0.041733,0.065058 0.093933,0.1229335 0.1408997,0.1844031 0.2880924,0.342201 0.6145882,0.637641 0.97112834,0.906955 0.88523982,0.614715 1.81381406,1.238878 2.85285826,1.554612 0.3848453,0.142134 0.7784768,0.262036 1.1732941,0.376269 0.4111645,0.143455 0.8229085,0.130095 1.2480671,0.09111 0.3093769,-0.04735 0.6065635,0.03334 0.8992209,0.120162 0.3587924,0.06527 0.7181492,0.130954 1.0784677,0.191766 0.3801606,0.116574 0.7743856,0.175936 1.169651,0.212568 0.3292218,0.02537 0.6596521,0.02564 0.9896504,0.02612 0.3103933,-2.81e-4 0.620784,-0.0011 0.9311778,-0.0016 0.3072229,-0.02628 0.5886169,-0.13407 0.8802199,-0.220648 0.250842,-0.133247 0.469621,-0.312851 0.731379,-0.427275 0.244216,-0.11692 0.515076,-0.170835 0.762586,-0.276167 0.22936,-0.101106 0.452889,-0.2368 0.653869,-0.387103 0.140705,-0.08992 0.271964,-0.196532 0.391319,-0.312719 0,0 -1.806079,-1.101395 -1.806079,-1.101395 v 0 c -0.117313,0.105124 -0.240984,0.204001 -0.373645,0.289729 -0.197254,0.13106 -0.401407,0.260215 -0.625151,0.341903 -0.261129,0.08592 -0.516799,0.181107 -0.7678263,0.293572 -0.2440427,0.125699 -0.4622015,0.297044 -0.7170829,0.400422 -0.2730783,0.08929 -0.548918,0.169444 -0.8398459,0.170967 -0.310036,5.31e-4 -0.6200746,0.0016 -0.9301116,0.0011 -0.3244652,-0.0021 -0.6495287,-0.0059 -0.9724876,-0.04029 C 5.9264201,12.17206 5.5431701,12.089045 5.1600925,11.997732 4.8005547,11.932096 4.4375456,11.878531 4.0846347,11.783269 3.7773972,11.705424 3.4645075,11.683756 3.1491273,11.727533 2.739929,11.754286 2.3453494,11.715217 1.9551298,11.579794 1.5594764,11.458251 1.1655648,11.331013 0.77687189,11.188964 0.5985106,11.120419 0.62817613,11.135117 0.45101633,11.053296 0.39313203,11.026543 0.22342052,10.938792 0.2783003,10.971141 3.2121074,12.700294 2.16158,12.080403 1.5383023,11.687705 1.1912368,11.414787 0.83084156,11.166972 0.55011053,10.820567 0.49088893,10.758976 0.35562053,10.630331 0.31096876,10.544762 0.23661336,10.402262 0.27086166,10.233025 0.10233609,10.139128 -0.13136057,9.9758143 -0.254958,9.7084703 -0.5054799,9.5625522 -1.2052428,8.9024357 -2.0653972,8.3005401 -3.0208894,8.1373542 c -0.2697475,0.036733 -0.4865685,0.170989 -0.7306069,0.2817612 -0.3277327,0.1227796 -0.6472668,0.2695682 -0.9410598,0.4598632 -0.2822502,0.1741368 -0.560106,0.3536295 -0.8245602,0.5531343 -0.3269315,0.2234927 -0.6748127,0.4112928 -1.031992,0.5830301 -0.299502,0.179472 -0.5998761,0.356692 -0.9143783,0.509729 -0.3183037,0.157299 -0.6417992,0.303456 -0.9749072,0.427631 -0.241812,0.117105 -0.4702938,0.257009 -0.6931593,0.406219 -0.2444817,0.153901 -0.5143719,0.257916 -0.7991507,0.313106 -0.3063422,0.05271 -0.6146152,0.106005 -0.9248042,0.127594 -0.403752,-2.81e-4 -0.807503,-0.0011 -1.211246,0.0032 -0.311375,0.0032 -0.62365,0.01444 -0.930887,0.06901 -0.320232,0.05883 -0.638207,0.117556 -0.965927,0.115168 -0.428118,0.03355 -0.852301,0.09943 -1.280715,0.127971 -0.406288,0.01152 -0.817538,0.01364 -1.215645,0.103892 -0.275818,0.06539 -0.552721,0.119791 -0.832059,0.168579 -0.268834,0.0413 -0.544389,0.0206 -0.808039,-0.04533 -0.739603,-0.274797 -0.06276,-0.03068 1.590355,0.937886 0.03377,0.0198 -0.0743,-0.02606 -0.108751,-0.04464 -0.115292,-0.06226 -0.190438,-0.162762 -0.254113,-0.273486 -0.202809,-0.213635 -0.457803,-0.370807 -0.649405,-0.593843 -0.153082,-0.264234 -0.281232,-0.553464 -0.524239,-0.751503 -0.206114,-0.200259 -0.329433,-0.462783 -0.463483,-0.712291 -0.130272,-0.294183 -0.236353,-0.600404 -0.405956,-0.875483 0,0 -1.929028,-0.8825046 -1.929028,-0.8825046 z"
         transform="translate(29.786757,14.170399)" />
      <path
         style="display:inline;fill:#ffffff;stroke:#000000;stroke-width:0;stroke-dasharray:none;stroke-opacity:1"
         id="path1628"
         d="m -19.108021,10.860857 c 0.370126,0.204627 0.70866,0.45353 1.037169,0.717222 0.672191,0.569117 1.433506,0.902841 2.244091,1.342867 0.02944,0.01598 0.417971,0.130917 0.47954,0.150829 0,0 -1.667547,-1.283835 -1.667547,-1.283835 v 0 c -0.100747,-0.03583 -0.203277,-0.06699 -0.302688,-0.106324 -0.05269,-0.02086 -0.203962,-0.09785 -0.155272,-0.06902 2.993728,1.772261 1.934718,1.184411 1.348966,0.74551 -0.311908,-0.276267 -0.645556,-0.526157 -1.002998,-0.741141 0,0 -1.981261,-0.756105 -1.981261,-0.756105 z"
         transform="translate(29.786757,14.170399)" />
      <path
         style="display:inline;fill:#ffffff;stroke:#000000;stroke-width:0;stroke-dasharray:none;stroke-opacity:1"
         id="path1630"
         d="m -18.53523,10.356781 c 0.01461,0.421676 0.01193,0.843739 0.0097,1.265601 -0.06812,0.865773 0.735493,2.754364 2.058026,1.538173 0.02705,-0.03721 0.0541,-0.07444 0.08115,-0.111664 0,0 -1.824551,-1.076872 -1.824551,-1.076872 v 0 c -0.01555,0.01624 -0.03109,0.03254 -0.04663,0.04878 -0.708946,-0.150669 0.02068,4.25e-4 1.736504,1.027457 0.02015,0.01205 -0.05377,0.0027 -0.06897,-0.01513 -0.03114,-0.03647 -0.06045,-0.245745 -0.06213,-0.267472 -0.0051,-0.06637 -8.58e-4,-0.13312 -0.0013,-0.19968 -0.0022,-0.418597 -0.0051,-0.837417 0.0097,-1.255833 0,0 -1.891544,-0.953375 -1.891544,-0.953375 z"
         transform="translate(29.786757,14.170399)" />
      <path
         style="display:inline;fill:#ffffff;stroke:#000000;stroke-width:0;stroke-dasharray:none;stroke-opacity:1"
         id="path1632"
         d="m -14.457275,12.600753 c 0.521875,0.01375 1.028714,0.122355 1.53134,0.252147 0.07351,0.01757 0.146737,0.03631 0.220528,0.05271 0.138699,0.03079 0.25478,0.04252 0.386375,0.09775 0.06341,0.02659 0.241781,0.130699 0.182025,0.0968 -0.535889,-0.304013 -2.143991,-1.215257 -1.610483,-0.907167 0.664254,0.383589 1.335162,0.755792 2.002744,1.133691 0.52135,0.300982 1.093283,0.48254 1.64935,0.705789 0.4656652,0.206867 0.9603618,0.307453 1.4651191,0.357605 0.3985839,0.129611 0.6362161,0.135089 1.0231677,-0.03525 0.4797796,-0.213444 0.9911121,-0.335305 1.4875823,-0.499643 0.06736,-0.02182 0.1347205,-0.04358 0.2020816,-0.06541 0,0 -1.7398418,-1.166766 -1.7398418,-1.166766 v 0 c -0.065617,0.02261 -0.1312346,0.04517 -0.1968522,0.06779 -0.4994533,0.163159 -1.0046038,0.309008 -1.493915,0.502085 -0.3702744,0.100193 -0.6030808,0.01762 -0.9696677,-0.04528 -0.487622,-0.06379 -0.95911,-0.189026 -1.410785,-0.384942 -0.563341,-0.216953 -1.125415,-0.434395 -1.64934,-0.73698 0.529968,0.304114 2.128828,1.200659 1.589904,0.912348 -1.29552,-0.693059 -1.644173,-1.127241 -2.801864,-1.343345 -0.515987,-0.120577 -1.039028,-0.186314 -1.563853,-0.255963 0,0 1.696385,1.262038 1.696385,1.262038 z"
         transform="translate(29.786757,14.170399)" />
      <path
         style="display:inline;fill:#ffffff;stroke:#000000;stroke-width:0;stroke-dasharray:none;stroke-opacity:1"
         id="path1634"
         d="m -10.411871,13.489602 c 0.5877607,-0.0093 1.17278,-0.07491 1.7594053,-0.112381 0.1063381,-0.0055 0.2126777,-0.01104 0.3190174,-0.01651 0,0 -1.6894627,-1.199009 -1.6894627,-1.199009 v 0 c -0.105147,0.007 -0.210294,0.01401 -0.315441,0.02102 -0.596039,0.04162 -1.192782,0.10126 -1.791006,0.07255 0,0 1.717487,1.234346 1.717487,1.234346 z"
         transform="translate(29.786757,14.170399)" />
      <path
         style="display:inline;fill:#ffffff;stroke:#000000;stroke-width:0;stroke-dasharray:none;stroke-opacity:1"
         id="path1636"
         d="m -2.4872989,11.000877 c 0.5576069,-0.155887 1.1280306,-0.264907 1.70123178,-0.347296 0.59762125,-0.131947 1.20335408,-0.193411 1.81362352,-0.224857 0,0 -1.68442484,-1.196583 -1.68442484,-1.196583 v 0 C -1.273726,9.2677592 -1.882568,9.3399247 -2.4870618,9.4701729 c -0.5819014,0.094704 -1.1574262,0.2219852 -1.7378299,0.3247686 0,0 1.7375928,1.2059355 1.7375928,1.2059355 z"
         transform="translate(29.786757,14.170399)" />
      <path
         style="display:inline;fill:#ffffff;stroke:#000000;stroke-width:0;stroke-dasharray:none;stroke-opacity:1"
         id="path1638"
         d="m 0.34113281,11.900815 c 0.51056992,-0.559 1.09994379,-1.045458 1.68411409,-1.527371 0.08274,-0.07238 0.1654776,-0.144772 0.2482161,-0.21716 0,0 -1.76608421,-1.0820472 -1.76608421,-1.0820472 v 0 c -0.0784659,0.072553 -0.15693183,0.145106 -0.23539775,0.2176643 -0.58385959,0.5057157 -1.17769176,1.0010539 -1.73858554,1.5318939 0,0 1.80773731,1.07702 1.80773731,1.07702 z"
         transform="translate(29.786757,14.170399)" />
      <path
         style="display:inline;fill:#ffffff;stroke:#000000;stroke-width:0;stroke-dasharray:none;stroke-opacity:1"
         id="path1640"
         d="m 13.171313,12.218566 c 0.109415,-0.363084 0.278884,-0.703947 0.413975,-1.057608 0.08195,-0.300664 0.232656,-0.575222 0.345529,-0.864261 0.07475,-0.161975 0.158954,-0.3173155 0.256322,-0.4669282 0,0 -1.825333,-1.0556703 -1.825333,-1.0556703 v 0 c -0.107778,0.1613385 -0.201829,0.3281287 -0.279588,0.5059121 -0.109127,0.2916133 -0.266774,0.5650778 -0.338369,0.8703814 -0.127951,0.353592 -0.293381,0.692088 -0.428153,1.043143 0,0 1.855617,1.025031 1.855617,1.025031 z"
         transform="translate(29.786757,14.170399)" />
      <path
         style="display:inline;fill:#ffffff;stroke:#000000;stroke-width:0;stroke-dasharray:none;stroke-opacity:1"
         id="path1681"
         d="m 13.864677,8.4056538 c -0.190364,0.2752108 -0.398681,0.5306697 -0.652637,0.751004 -0.185838,0.2322938 -0.414111,0.4045036 -0.648351,0.5826003 -0.251338,0.1492092 -0.490244,0.3102559 -0.727989,0.4791429 -0.03901,0.02166 -0.07668,0.04581 -0.117021,0.06488 -0.131545,0.06222 -0.11691,0.02882 -0.240581,0.114706 -0.101792,0.07067 -0.182558,0.152272 -0.291091,0.214819 -0.262571,0.08149 -0.480652,0.235271 -0.709414,0.379401 -0.256776,0.104747 -0.452471,0.294442 -0.6673412,0.459794 -0.1478436,0.08411 -0.074915,0.03705 -0.2180407,0.142255 0,0 1.7886989,1.123722 1.7886989,1.123722 v 0 c 0.141561,-0.09775 0.06739,-0.04719 0.222689,-0.151449 0.205842,-0.166461 0.41453,-0.325076 0.654265,-0.442999 0.228065,-0.147319 0.468145,-0.260544 0.71392,-0.375744 0.212712,-0.145668 0.418237,-0.292728 0.650396,-0.408479 0.236127,-0.173314 0.491032,-0.31438 0.730862,-0.482524 0.240054,-0.179641 0.459481,-0.374549 0.657568,-0.599889 0.244538,-0.233149 0.451011,-0.4945793 0.665311,-0.7532974 0,0 -1.811244,-1.0979398 -1.811244,-1.0979398 z"
         transform="translate(29.786757,14.170399)" />
      <path
         style="fill:#000000;stroke:#000000;stroke-width:0;stroke-dasharray:none;stroke-opacity:1"
         id="path2201"
         d="m 4.9763547,44.564985 c 0.583243,-0.823287 1.239092,-1.579721 1.9136374,-2.316435 0.62027,-0.672321 1.3237195,-1.246061 2.0326882,-1.804955 0.9457171,-0.784181 1.8828637,-1.580018 2.8238907,-2.370712 1.344994,-1.121535 2.691696,-2.240697 4.040543,-3.356897 1.627885,-1.363723 3.282409,-2.689715 4.951522,-3.994608 2.061314,-1.617016 4.090895,-3.279688 6.160512,-4.884522 1.773054,-1.286165 3.478069,-2.67179 5.160892,-4.089126 1.675863,-1.395026 3.246523,-2.926904 4.838905,-4.428249 1.538189,-1.464505 3.136265,-2.853782 4.759718,-4.207438 1.12491,-0.967201 2.304705,-1.856523 3.407914,-2.852314 0.944883,-0.8531478 1.835627,-1.7712488 2.750262,-2.6608647 0.555623,-0.5458912 1.046976,-1.1598212 1.613235,-1.6933308 0.351439,-0.3294937 0.715918,-0.6415384 1.061202,-0.9786009 0.192712,-0.1743097 0.390559,-0.3408663 0.580721,-0.5192363 1.909714,-1.8059726 -0.470939,-4.70340799 -2.380653,-2.8974354 v 0 C 48.481681,1.7117064 48.2511,1.885005 48.045976,2.0921371 47.731065,2.4193236 47.36716,2.6881566 47.047377,3.0100295 c -0.576365,0.5479157 -1.095417,1.155307 -1.649388,1.7280446 -0.882486,0.8592146 -1.74276,1.7448697 -2.653488,2.570015 -1.063177,0.9663789 -2.213597,1.8132471 -3.295813,2.7548729 -1.679766,1.401938 -3.334348,2.839269 -4.926366,4.355271 -1.542457,1.454287 -3.062803,2.939585 -4.685598,4.291587 -1.645257,1.386034 -3.312757,2.739948 -5.046805,3.996901 -2.073115,1.60813 -4.107197,3.272602 -6.171758,4.893276 -1.695352,1.325754 -3.37626,2.672416 -5.029912,4.05767 -1.356001,1.122118 -2.709848,2.24721 -4.0619395,3.374738 -0.9123907,0.767035 -1.8215301,1.538449 -2.73755,2.300377 -0.86286,0.682151 -1.7142701,1.387658 -2.4673749,2.209395 -0.7713955,0.84281 -1.5177372,1.711837 -2.186867,2.651517 -1.56293047,2.155829 1.2789066,4.52712 2.8418371,2.371291 z" />
      <path
         style="fill:#000000;stroke:#000000;stroke-width:0;stroke-dasharray:none;stroke-opacity:1"
         id="path2203"
         d="M 50.414308,42.413116 C 49.758031,42.05826 49.193837,41.550405 48.601777,41.100388 47.96273,40.564506 47.273842,40.08892 46.6748,39.508167 c -0.655086,-0.60136 -1.255099,-1.256253 -1.870073,-1.89641 -0.889124,-0.9023 -1.767418,-1.816097 -2.726061,-2.647728 -0.692285,-0.64891 -1.41475,-1.261168 -2.148897,-1.863377 -0.761557,-0.620464 -1.582868,-1.16339 -2.393816,-1.718011 -0.741864,-0.532718 -1.482284,-1.066913 -2.218191,-1.607498 -0.961154,-0.680798 -1.835799,-1.470212 -2.709536,-2.254584 -1.480057,-1.349943 -2.836057,-2.820563 -4.222224,-4.261298 -0.905189,-0.931118 -1.831238,-1.842028 -2.699593,-2.80698 C 24.94143,19.651459 24.137399,18.910726 23.307381,18.19688 22.592853,17.609508 21.953963,16.942395 21.284352,16.307402 20.335833,15.425508 19.294897,14.649152 18.270149,13.856764 17.279878,13.118382 16.294604,12.372381 15.292353,11.649786 14.370555,10.985326 13.512831,10.241098 12.637896,9.5194327 11.843616,8.9171814 11.134572,8.2256296 10.473512,7.486422 9.7989988,6.7267172 9.1339923,5.9593993 8.4735492,5.1878781 8.0874461,4.7546363 7.7748939,4.2692001 7.4159449,3.8156898 6.9808084,3.2964089 6.4697319,2.8413783 5.9523528,2.4029424 5.6068923,2.0925777 5.2281741,1.8184046 4.8773345,1.5148202 4.7065203,1.3591121 4.8123738,1.4526061 4.5547116,1.2399867 2.3934714,-0.51645579 -0.13121308,2.4907311 2.0300298,4.2471747 v 0 C 2.1861116,4.3687444 2.0863578,4.288287 2.3221146,4.4969352 2.6769097,4.7866349 3.036764,5.0696802 3.381177,5.3717533 3.721904,5.651727 4.0554837,5.950619 4.3446059,6.281845 c 0.1372872,0.1154701 0.01766,0.00761 0.2376934,0.3241592 0.2651567,0.3814642 0.5661876,0.7340771 0.859108,1.094542 0.6811158,0.7956177 1.3671257,1.5867791 2.0627995,2.3701648 0.795734,0.88136 1.641296,1.715156 2.5894082,2.439877 0.942697,0.774643 1.865053,1.575823 2.859022,2.287874 0.966817,0.693531 1.912463,1.416328 2.86786,2.124977 0.920059,0.711431 1.856768,1.405855 2.713018,2.192567 0.716066,0.67877 1.400637,1.390684 2.165341,2.017969 0.704071,0.605076 1.388343,1.229913 2.022311,1.907112 0.89863,0.994509 1.848156,1.941079 2.785889,2.899608 1.452928,1.509997 2.875957,3.049795 4.42995,4.461903 0.970064,0.869892 1.944448,1.740629 3.009434,2.498252 0.771969,0.566761 1.548101,1.127629 2.327287,1.684814 0.716009,0.489387 1.44267,0.966359 2.117499,1.510867 0.709296,0.581772 1.405702,1.173683 2.074543,1.800835 0.871264,0.744916 1.648996,1.587291 2.459005,2.394774 0.656353,0.68204 1.297616,1.378842 1.995321,2.020958 0.714276,0.671731 1.496187,1.261853 2.260938,1.876101 0.715188,0.54136 1.39995,1.138903 2.19364,1.568509 2.403739,1.418988 4.443374,-1.925605 2.039635,-3.344592 z" />
    </g>
  </g>
</svg>
